<svg width="211" height="211" viewBox="0 0 211 211" fill="none" xmlns="http://www.w3.org/2000/svg">
<path d="M0 31C0 13.8792 13.8792 0 31 0H180C197.121 0 211 13.8792 211 31V180C211 197.121 197.121 211 180 211H31C13.8792 211 0 197.121 0 180V31Z" fill="url(#paint0_radial_1_108751)"/>
<mask id="path-2-outside-1_1_108751" maskUnits="userSpaceOnUse" x="73" y="26" width="66" height="148" fill="black">
<rect fill="white" x="73" y="26" width="66" height="148"/>
<path d="M87.4092 62.3525C92.8543 58.4516 99.2753 56.501 106.671 56.501C112.685 56.501 118.048 57.8018 122.762 60.4023C127.557 63.003 131.296 66.7002 133.978 71.4951C136.659 76.2087 138 81.6945 138 87.9521C138 94.2098 136.659 99.7364 133.978 104.531C131.296 109.326 128.682 111.899 123.887 114.5C120.267 116.497 115.601 118.389 110.906 119.16C110.9 119.161 110.893 119.164 110.887 119.165C110.882 119.165 110.878 119.166 110.873 119.166C109.465 119.396 108.056 119.525 106.671 119.525C106.214 119.525 105.76 119.517 105.311 119.502C99.4611 119.548 95.1006 121.732 91.5879 125.334C88.12 128.975 86.3858 133.843 86.3857 139.939C86.3857 146.035 88.1607 150.946 91.7109 154.672C95.2615 158.313 99.9685 160.134 105.831 160.134C111.694 160.134 116.4 158.228 119.95 154.418C123.583 150.608 125.4 145.613 125.4 139.432V139.305C125.4 133.462 123.625 128.763 120.074 125.207C119.723 124.855 124.5 123 126.5 122C130 120 128.051 121.32 131.292 119.103C132.17 120.255 132.972 121.485 133.698 122.794C136.423 127.62 137.786 133.124 137.786 139.305V171.691H125.4V160.642C123.171 164.536 120.198 167.542 116.482 169.659C112.849 171.776 108.679 172.834 103.973 172.834C98.2755 172.834 93.1565 171.394 88.6152 168.516C84.0739 165.637 80.4821 161.7 77.8398 156.704C75.2802 151.709 74 146.12 74 139.939C74 133.505 75.3216 127.832 77.9639 122.921C80.1637 118.888 83.0358 115.6 86.5811 113.057C83.5989 110.73 81.1524 107.889 79.2422 104.531C76.5603 99.7363 75.2188 94.2099 75.2188 87.9521V27H87.4092V62.3525ZM106.671 68.6914C100.901 68.6914 96.2272 70.3982 92.6514 73.8115C89.1569 77.2248 87.4092 81.9383 87.4092 87.9521C87.4092 93.966 89.1569 98.7203 92.6514 102.215C95.6717 105.098 99.4748 106.763 104.061 107.211C104.645 107.185 105.235 107.172 105.831 107.172C106.765 107.172 107.684 107.204 108.586 107.268C113.475 106.925 117.468 105.242 120.567 102.215C124.062 98.7202 125.81 93.9661 125.81 87.9521C125.81 81.9383 124.062 77.2248 120.567 73.8115C117.073 70.3983 112.441 68.6915 106.671 68.6914Z"/>
</mask>
<path d="M87.4092 62.3525C92.8543 58.4516 99.2753 56.501 106.671 56.501C112.685 56.501 118.048 57.8018 122.762 60.4023C127.557 63.003 131.296 66.7002 133.978 71.4951C136.659 76.2087 138 81.6945 138 87.9521C138 94.2098 136.659 99.7364 133.978 104.531C131.296 109.326 128.682 111.899 123.887 114.5C120.267 116.497 115.601 118.389 110.906 119.16C110.9 119.161 110.893 119.164 110.887 119.165C110.882 119.165 110.878 119.166 110.873 119.166C109.465 119.396 108.056 119.525 106.671 119.525C106.214 119.525 105.76 119.517 105.311 119.502C99.4611 119.548 95.1006 121.732 91.5879 125.334C88.12 128.975 86.3858 133.843 86.3857 139.939C86.3857 146.035 88.1607 150.946 91.7109 154.672C95.2615 158.313 99.9685 160.134 105.831 160.134C111.694 160.134 116.4 158.228 119.95 154.418C123.583 150.608 125.4 145.613 125.4 139.432V139.305C125.4 133.462 123.625 128.763 120.074 125.207C119.723 124.855 124.5 123 126.5 122C130 120 128.051 121.32 131.292 119.103C132.17 120.255 132.972 121.485 133.698 122.794C136.423 127.62 137.786 133.124 137.786 139.305V171.691H125.4V160.642C123.171 164.536 120.198 167.542 116.482 169.659C112.849 171.776 108.679 172.834 103.973 172.834C98.2755 172.834 93.1565 171.394 88.6152 168.516C84.0739 165.637 80.4821 161.7 77.8398 156.704C75.2802 151.709 74 146.12 74 139.939C74 133.505 75.3216 127.832 77.9639 122.921C80.1637 118.888 83.0358 115.6 86.5811 113.057C83.5989 110.73 81.1524 107.889 79.2422 104.531C76.5603 99.7363 75.2188 94.2099 75.2188 87.9521V27H87.4092V62.3525ZM106.671 68.6914C100.901 68.6914 96.2272 70.3982 92.6514 73.8115C89.1569 77.2248 87.4092 81.9383 87.4092 87.9521C87.4092 93.966 89.1569 98.7203 92.6514 102.215C95.6717 105.098 99.4748 106.763 104.061 107.211C104.645 107.185 105.235 107.172 105.831 107.172C106.765 107.172 107.684 107.204 108.586 107.268C113.475 106.925 117.468 105.242 120.567 102.215C124.062 98.7202 125.81 93.9661 125.81 87.9521C125.81 81.9383 124.062 77.2248 120.567 73.8115C117.073 70.3983 112.441 68.6915 106.671 68.6914Z" fill="white"/>
<path d="M87.4092 62.3525H86.4092V64.2991L87.9916 63.1655L87.4092 62.3525ZM106.671 56.501L106.671 55.501H106.671V56.501ZM122.762 60.4023L122.279 61.2779L122.285 61.2814L122.762 60.4023ZM133.978 71.4951L133.105 71.9833L133.108 71.9896L133.978 71.4951ZM138 87.9521L139 87.9521L139 87.9521L138 87.9521ZM133.978 104.531L134.85 105.019L134.85 105.019L133.978 104.531ZM123.887 114.5L123.41 113.621L123.404 113.624L123.887 114.5ZM110.906 119.16L110.744 118.173L110.724 118.177L110.704 118.181L110.906 119.16ZM110.887 119.165L110.965 120.162L111.027 120.157L111.088 120.145L110.887 119.165ZM110.873 119.166L110.795 118.169L110.753 118.172L110.712 118.179L110.873 119.166ZM106.671 119.525L106.671 120.525L106.671 120.525L106.671 119.525ZM105.311 119.502L105.344 118.503L105.323 118.502L105.303 118.502L105.311 119.502ZM91.5879 125.334L90.8719 124.636L90.8638 124.644L91.5879 125.334ZM86.3857 139.939L85.3857 139.939V139.939H86.3857ZM91.7109 154.672L90.987 155.362L90.995 155.37L91.7109 154.672ZM105.831 160.134L105.831 161.134L105.831 161.134L105.831 160.134ZM119.95 154.418L119.226 153.728L119.219 153.736L119.95 154.418ZM120.074 125.207L119.366 125.913L119.367 125.914L120.074 125.207ZM126.5 122L126.947 122.894L126.972 122.882L126.996 122.868L126.5 122ZM131.292 119.103L132.087 118.496L131.511 117.741L130.727 118.277L131.292 119.103ZM133.698 122.794L132.824 123.279L132.827 123.286L133.698 122.794ZM137.786 171.691V172.691H138.786V171.691H137.786ZM125.4 171.691H124.4V172.691H125.4V171.691ZM125.4 160.642H126.4V156.882L124.533 160.145L125.4 160.642ZM116.482 169.659L115.987 168.79L115.979 168.795L116.482 169.659ZM103.973 172.834L103.973 173.834H103.973V172.834ZM88.6152 168.516L88.0798 169.36L88.0798 169.36L88.6152 168.516ZM77.8398 156.704L76.9498 157.16L76.9559 157.172L77.8398 156.704ZM74 139.939L73 139.939V139.939H74ZM77.9639 122.921L77.086 122.442L77.0832 122.447L77.9639 122.921ZM86.5811 113.057L87.1639 113.869L88.2499 113.09L87.1962 112.268L86.5811 113.057ZM79.2422 104.531L78.3694 105.019L78.373 105.026L79.2422 104.531ZM75.2188 27V26H74.2188V27H75.2188ZM87.4092 27H88.4092V26H87.4092V27ZM106.671 68.6914L106.671 67.6914H106.671V68.6914ZM92.6514 73.8115L91.9608 73.0881L91.9526 73.0962L92.6514 73.8115ZM87.4092 87.9521L86.4092 87.9521V87.9521H87.4092ZM92.6514 102.215L91.9442 102.922L91.9525 102.93L91.9609 102.938L92.6514 102.215ZM104.061 107.211L103.963 108.206L104.034 108.213L104.105 108.21L104.061 107.211ZM105.831 107.172L105.831 106.172H105.831V107.172ZM108.586 107.268L108.516 108.265L108.586 108.27L108.656 108.265L108.586 107.268ZM120.567 102.215L121.266 102.93L121.274 102.922L120.567 102.215ZM125.81 87.9521L126.81 87.9521L126.81 87.9521L125.81 87.9521ZM120.567 73.8115L121.266 73.0961L121.266 73.0961L120.567 73.8115ZM87.4092 62.3525L87.9916 63.1655C93.2492 59.3988 99.4614 57.501 106.671 57.501V56.501V55.501C99.0893 55.501 92.4593 57.5044 86.8268 61.5396L87.4092 62.3525ZM106.671 56.501L106.671 57.501C112.536 57.501 117.73 58.7682 122.279 61.2779L122.762 60.4023L123.245 59.5268C118.367 56.8354 112.834 55.501 106.671 55.501L106.671 56.501ZM122.762 60.4023L122.285 61.2814C126.912 63.7912 130.515 67.3523 133.105 71.9833L133.978 71.4951L134.85 71.007C132.077 66.0481 128.201 62.2148 123.238 59.5233L122.762 60.4023ZM133.978 71.4951L133.108 71.9896C135.692 76.5306 137 81.8409 137 87.9522L138 87.9521L139 87.9521C139 81.5482 137.627 75.8868 134.847 71.0006L133.978 71.4951ZM138 87.9521H137C137 94.063 135.692 99.4172 133.105 104.043L133.978 104.531L134.85 105.019C137.627 100.056 139 94.3566 139 87.9521H138ZM133.978 104.531L133.105 104.043C130.515 108.673 128.038 111.111 123.41 113.621L123.887 114.5L124.363 115.379C129.325 112.688 132.076 109.979 134.85 105.019L133.978 104.531ZM123.887 114.5L123.404 113.624C119.856 115.582 115.298 117.425 110.744 118.173L110.906 119.16L111.068 120.147C115.903 119.353 120.678 117.412 124.37 115.376L123.887 114.5ZM110.906 119.16L110.704 118.181C110.682 118.185 110.665 118.19 110.654 118.192C110.648 118.194 110.643 118.195 110.64 118.196C110.637 118.197 110.635 118.197 110.634 118.198C110.633 118.198 110.634 118.198 110.635 118.197C110.637 118.197 110.64 118.196 110.644 118.195C110.652 118.193 110.667 118.189 110.685 118.186L110.887 119.165L111.088 120.145C111.11 120.14 111.128 120.136 111.139 120.133C111.145 120.131 111.149 120.13 111.153 120.129C111.156 120.128 111.158 120.128 111.159 120.128C111.16 120.127 111.159 120.128 111.158 120.128C111.156 120.128 111.153 120.129 111.149 120.13C111.141 120.132 111.127 120.136 111.108 120.14L110.906 119.16ZM110.887 119.165L110.809 118.168C110.811 118.168 110.812 118.168 110.813 118.168C110.813 118.168 110.814 118.168 110.812 118.168C110.811 118.168 110.809 118.168 110.806 118.168C110.803 118.168 110.799 118.169 110.795 118.169L110.873 119.166L110.951 120.163C110.949 120.163 110.947 120.163 110.947 120.163C110.946 120.163 110.946 120.163 110.948 120.163C110.948 120.163 110.951 120.163 110.954 120.163C110.956 120.163 110.96 120.162 110.965 120.162L110.887 119.165ZM110.873 119.166L110.712 118.179C109.349 118.401 107.994 118.525 106.671 118.525L106.671 119.525L106.671 120.525C108.117 120.525 109.581 120.39 111.034 120.153L110.873 119.166ZM106.671 119.525V118.525C106.226 118.525 105.784 118.517 105.344 118.503L105.311 119.502L105.277 120.501C105.737 120.517 106.202 120.525 106.671 120.525V119.525ZM105.311 119.502L105.303 118.502C99.166 118.55 94.5562 120.858 90.872 124.636L91.5879 125.334L92.3038 126.032C95.6449 122.606 99.7561 120.546 105.318 120.502L105.311 119.502ZM91.5879 125.334L90.8638 124.644C87.1826 128.509 85.3858 133.644 85.3857 139.939L86.3857 139.939L87.3857 139.939C87.3858 134.042 89.0573 129.441 92.312 126.024L91.5879 125.334ZM86.3857 139.939H85.3857C85.3857 146.242 87.2275 151.417 90.987 155.362L91.7109 154.672L92.4349 153.982C89.0939 150.476 87.3857 145.829 87.3857 139.939H86.3857ZM91.7109 154.672L90.995 155.37C94.7629 159.234 99.7437 161.134 105.831 161.134V160.134V159.134C100.193 159.134 95.7601 157.392 92.4269 153.974L91.7109 154.672ZM105.831 160.134L105.831 161.134C111.933 161.134 116.917 159.139 120.682 155.1L119.95 154.418L119.219 153.736C115.882 157.317 111.454 159.134 105.831 159.134L105.831 160.134ZM119.95 154.418L120.674 155.108C124.515 151.08 126.4 145.822 126.4 139.432H125.4H124.4C124.4 145.403 122.652 150.136 119.226 153.728L119.95 154.418ZM125.4 139.432H126.4V139.305H125.4H124.4V139.432H125.4ZM125.4 139.305H126.4C126.4 133.244 124.55 128.275 120.782 124.5L120.074 125.207L119.367 125.914C122.699 129.252 124.4 133.681 124.4 139.305H125.4ZM120.074 125.207L120.783 124.501C120.922 124.641 121.032 124.843 121.052 125.084C121.071 125.304 121.009 125.473 120.965 125.563C120.921 125.653 120.874 125.71 120.854 125.732C120.842 125.745 120.833 125.755 120.827 125.76C120.822 125.766 120.818 125.769 120.818 125.769C120.817 125.769 120.824 125.763 120.841 125.752C120.856 125.74 120.878 125.725 120.907 125.707C120.964 125.67 121.04 125.625 121.135 125.572C121.525 125.355 122.117 125.074 122.817 124.758C124.172 124.145 125.926 123.405 126.947 122.894L126.5 122L126.053 121.106C125.074 121.595 123.439 122.282 121.994 122.935C121.294 123.251 120.633 123.563 120.163 123.824C119.939 123.948 119.699 124.094 119.517 124.249C119.44 124.316 119.277 124.463 119.168 124.685C119.108 124.808 119.038 125.007 119.06 125.255C119.083 125.524 119.205 125.751 119.366 125.913L120.074 125.207ZM126.5 122L126.996 122.868C128.763 121.859 129.053 121.743 129.478 121.507C129.887 121.281 130.267 121.016 131.857 119.928L131.292 119.103L130.727 118.277C129.077 119.407 128.81 119.591 128.508 119.758C128.223 119.917 127.737 120.141 126.004 121.132L126.5 122ZM131.292 119.103L130.497 119.709C131.345 120.821 132.12 122.011 132.824 123.279L133.698 122.794L134.573 122.309C133.824 120.96 132.996 119.688 132.087 118.496L131.292 119.103ZM133.698 122.794L132.827 123.286C135.458 127.945 136.786 133.276 136.786 139.305H137.786H138.786C138.786 132.972 137.388 127.295 134.569 122.302L133.698 122.794ZM137.786 139.305H136.786V171.691H137.786H138.786V139.305H137.786ZM137.786 171.691V170.691H125.4V171.691V172.691H137.786V171.691ZM125.4 171.691H126.4V160.642H125.4H124.4V171.691H125.4ZM125.4 160.642L124.533 160.145C122.387 163.893 119.54 166.766 115.987 168.79L116.482 169.659L116.977 170.528C120.856 168.318 123.955 165.18 126.268 161.138L125.4 160.642ZM116.482 169.659L115.979 168.795C112.516 170.812 108.524 171.834 103.973 171.834V172.834V173.834C108.834 173.834 113.182 172.739 116.986 170.523L116.482 169.659ZM103.973 172.834L103.973 171.834C98.4533 171.834 93.5221 170.442 89.1506 167.671L88.6152 168.516L88.0798 169.36C92.7909 172.347 98.0977 173.834 103.973 173.834L103.973 172.834ZM88.6152 168.516L89.1506 167.671C84.7639 164.89 81.289 161.086 78.7238 156.237L77.8398 156.704L76.9559 157.172C79.6752 162.313 83.3838 166.383 88.0798 169.36L88.6152 168.516ZM77.8398 156.704L78.7298 156.248C76.2495 151.407 75 145.978 75 139.939H74H73C73 146.263 74.3108 152.01 76.9499 157.16L77.8398 156.704ZM74 139.939L75 139.939C75 133.644 76.2919 128.139 78.8445 123.395L77.9639 122.921L77.0832 122.447C74.3514 127.525 73 133.365 73 139.939L74 139.939ZM77.9639 122.921L78.8418 123.4C80.9735 119.492 83.7474 116.32 87.1639 113.869L86.5811 113.057L85.9982 112.244C82.3242 114.879 79.3539 118.284 77.086 122.442L77.9639 122.921ZM86.5811 113.057L87.1962 112.268C84.3192 110.024 81.9583 107.283 80.1114 104.037L79.2422 104.531L78.373 105.026C80.3465 108.494 82.8785 111.436 85.9659 113.845L86.5811 113.057ZM79.2422 104.531L80.1149 104.043C77.5275 99.417 76.2188 94.063 76.2188 87.9521H75.2188H74.2188C74.2188 94.3568 75.5931 100.056 78.3694 105.019L79.2422 104.531ZM75.2188 87.9521H76.2188V27H75.2188H74.2188V87.9521H75.2188ZM75.2188 27V28H87.4092V27V26H75.2188V27ZM87.4092 27H86.4092V62.3525H87.4092H88.4092V27H87.4092ZM106.671 68.6914V67.6914C100.69 67.6914 95.7537 69.4678 91.9609 73.0882L92.6514 73.8115L93.3418 74.5349C96.7008 71.3286 101.112 69.6914 106.671 69.6914V68.6914ZM92.6514 73.8115L91.9526 73.0962C88.2227 76.7393 86.4092 81.7353 86.4092 87.9521L87.4092 87.9521L88.4092 87.9522C88.4092 82.1414 90.091 77.7103 93.3501 74.5269L92.6514 73.8115ZM87.4092 87.9521H86.4092C86.4092 94.17 88.223 99.2006 91.9442 102.922L92.6514 102.215L93.3585 101.508C90.0908 98.24 88.4092 93.762 88.4092 87.9521H87.4092ZM92.6514 102.215L91.9609 102.938C95.1599 105.992 99.1795 107.739 103.963 108.206L104.061 107.211L104.158 106.216C99.7701 105.787 96.1834 104.204 93.3418 101.491L92.6514 102.215ZM104.061 107.211L104.105 108.21C104.674 108.185 105.25 108.172 105.831 108.172V107.172V106.172C105.22 106.172 104.615 106.185 104.016 106.212L104.061 107.211ZM105.831 107.172L105.831 108.172C106.742 108.172 107.637 108.203 108.516 108.265L108.586 107.268L108.656 106.27C107.73 106.205 106.788 106.172 105.831 106.172L105.831 107.172ZM108.586 107.268L108.656 108.265C113.748 107.908 117.975 106.145 121.266 102.93L120.567 102.215L119.869 101.499C116.962 104.339 113.201 105.942 108.516 106.27L108.586 107.268ZM120.567 102.215L121.274 102.922C124.996 99.2005 126.81 94.17 126.81 87.9521H125.81H124.81C124.81 93.7621 123.128 98.2399 119.86 101.508L120.567 102.215ZM125.81 87.9521L126.81 87.9521C126.81 81.7353 124.996 76.7393 121.266 73.0961L120.567 73.8115L119.869 74.5269C123.128 77.7103 124.81 82.1413 124.81 87.9522L125.81 87.9521ZM120.567 73.8115L121.266 73.0961C117.551 69.4679 112.651 67.6915 106.671 67.6914L106.671 68.6914L106.671 69.6914C112.23 69.6915 116.594 71.3288 119.869 74.5269L120.567 73.8115Z" fill="black" mask="url(#path-2-outside-1_1_108751)"/>
<defs>
<radialGradient id="paint0_radial_1_108751" cx="0" cy="0" r="1" gradientUnits="userSpaceOnUse" gradientTransform="translate(17 26) rotate(46.4281) scale(255.345)">
<stop offset="0.504808" stop-color="#3D3B38"/>
<stop offset="1" stop-color="#272523"/>
</radialGradient>
</defs>
</svg>
