<svg width="64" height="146" viewBox="0 0 64 146" fill="none" xmlns="http://www.w3.org/2000/svg">
<path d="M13.4092 35.3525C18.8543 31.4516 25.2753 29.501 32.6709 29.501C38.6847 29.501 44.0482 30.8018 48.7617 33.4023C53.5566 36.003 57.2956 39.7002 59.9775 44.4951C62.6594 49.2087 64 54.6945 64 60.9521C64 67.2098 62.6593 72.7364 59.9775 77.5312C57.2956 82.3262 54.6816 84.8994 49.8867 87.5C46.2671 89.497 41.6005 91.3888 36.9062 92.1602C36.8998 92.1615 36.8932 92.1637 36.8867 92.165C36.8822 92.1654 36.8776 92.1657 36.873 92.166C35.4654 92.3957 34.0557 92.5254 32.6709 92.5254C32.2141 92.5254 31.7603 92.517 31.3105 92.502C25.4611 92.5481 21.1006 94.7321 17.5879 98.334C14.12 101.975 12.3858 106.843 12.3857 112.939C12.3857 119.035 14.1607 123.946 17.7109 127.672C21.2615 131.313 25.9685 133.134 31.8311 133.134C37.6935 133.134 42.3997 131.228 45.9502 127.418C49.5833 123.608 51.4004 118.613 51.4004 112.432V112.305C51.4004 106.462 49.6247 101.763 46.0742 98.207C45.7234 97.8547 50.5001 95.9999 52.5 95C56 93 54.0515 94.3202 57.292 92.1025C58.1704 93.2548 58.9722 94.4854 59.6982 95.7939C62.4231 100.62 63.7861 106.124 63.7861 112.305V144.691H51.4004V133.642C49.171 137.536 46.1981 140.542 42.4824 142.659C38.8494 144.776 34.6791 145.834 29.9727 145.834C24.2755 145.834 19.1565 144.394 14.6152 141.516C10.0739 138.637 6.4821 134.7 3.83984 129.704C1.28019 124.709 0 119.12 0 112.939C3.02826e-05 106.505 1.32164 100.832 3.96387 95.9209C6.1637 91.8879 9.0358 88.5996 12.5811 86.0566C9.59887 83.73 7.1524 80.8886 5.24219 77.5312C2.56029 72.7363 1.21875 67.2099 1.21875 60.9521V0H13.4092V35.3525ZM32.6709 41.6914C26.9007 41.6914 22.2272 43.3982 18.6514 46.8115C15.1569 50.2248 13.4092 54.9383 13.4092 60.9521C13.4092 66.966 15.1569 71.7203 18.6514 75.2148C21.6717 78.0979 25.4748 79.763 30.0605 80.2109C30.6445 80.185 31.2348 80.1719 31.8311 80.1719C32.7653 80.1719 33.6836 80.204 34.5859 80.2676C39.4746 79.925 43.4683 78.2418 46.5674 75.2148C50.0619 71.7202 51.8096 66.9661 51.8096 60.9521C51.8095 54.9383 50.0619 50.2248 46.5674 46.8115C43.0729 43.3983 38.4408 41.6915 32.6709 41.6914Z" fill="white"/>
</svg>
