<svg width="872" height="925" viewBox="0 0 872 925" fill="none" xmlns="http://www.w3.org/2000/svg">
<g filter="url(#filter0_ddddddd_27_444)">
<path d="M673.472 6H198.028C106.333 6 32 80.3567 32 172.08V647.674C32 739.398 106.333 813.754 198.028 813.754H673.472C765.167 813.754 839.5 739.398 839.5 647.674V172.08C839.5 80.3567 765.167 6 673.472 6Z" fill="url(#paint0_linear_27_444)"/>
<path d="M673.472 6H198.028C106.333 6 32 80.3567 32 172.08V647.674C32 739.398 106.333 813.754 198.028 813.754H673.472C765.167 813.754 839.5 739.398 839.5 647.674V172.08C839.5 80.3567 765.167 6 673.472 6Z" fill="url(#paint1_linear_27_444)"/>
<path d="M673.472 6H198.028C106.333 6 32 80.3567 32 172.08V647.674C32 739.398 106.333 813.754 198.028 813.754H673.472C765.167 813.754 839.5 739.398 839.5 647.674V172.08C839.5 80.3567 765.167 6 673.472 6Z" fill="url(#paint2_radial_27_444)"/>
<path style="mix-blend-mode:hard-light" d="M673.472 6H198.028C106.333 6 32 80.3567 32 172.08V647.674C32 739.398 106.333 813.754 198.028 813.754H673.472C765.167 813.754 839.5 739.398 839.5 647.674V172.08C839.5 80.3567 765.167 6 673.472 6Z" fill="url(#paint3_radial_27_444)"/>
<path d="M673.472 11.6618H198.028C109.459 11.6618 37.6602 83.4837 37.6602 172.08V647.674C37.6602 736.271 109.459 808.093 198.028 808.093H673.472C762.041 808.093 833.84 736.271 833.84 647.674V172.08C833.84 83.4837 762.041 11.6618 673.472 11.6618Z" stroke="#F3F3F3" stroke-width="11"/>
</g>
<g opacity="0.3" filter="url(#filter1_f_27_444)">
<mask id="mask0_27_444" style="mask-type:alpha" maskUnits="userSpaceOnUse" x="469" y="443" width="288" height="288">
<g opacity="0.3">
<path d="M613.113 443.848C574.172 443.848 569.282 444.019 553.985 444.715C538.722 445.414 528.303 447.831 519.186 451.378C509.755 455.042 501.755 459.943 493.785 467.918C485.809 475.89 480.91 483.893 477.235 493.324C473.681 502.447 471.261 512.873 470.574 528.136C469.89 543.435 469.71 548.327 469.71 587.281C469.71 626.235 469.884 631.109 470.577 646.409C471.279 661.678 473.695 672.101 477.238 681.221C480.904 690.655 485.803 698.657 493.776 706.63C501.743 714.608 509.743 719.519 519.168 723.188C528.291 726.728 538.713 729.152 553.977 729.846C569.267 730.541 574.157 730.714 613.091 730.714C652.039 730.714 656.915 730.541 672.204 729.846C687.471 729.152 697.901 726.728 707.025 723.188C716.451 719.519 724.443 714.608 732.412 706.63C740.381 698.657 745.287 690.655 748.954 681.224C752.486 672.101 754.901 661.675 755.618 646.412C756.305 631.112 756.486 626.235 756.486 587.281C756.486 548.327 756.305 543.438 755.618 528.139C754.901 512.87 752.486 502.447 748.954 493.327C745.287 483.893 740.381 475.89 732.412 467.918C724.435 459.94 716.458 455.039 707.017 451.378C697.878 447.831 687.449 445.414 672.182 444.715C656.892 444.019 652.024 443.848 613.068 443.848H613.113ZM600.246 469.696C604.065 469.69 608.329 469.696 613.113 469.696C651.398 469.696 655.934 469.834 671.05 470.521C685.034 471.16 692.618 473.497 697.674 475.46C704.368 478.06 709.138 481.168 714.157 486.188C719.175 491.208 722.277 495.989 724.88 502.683C726.843 507.733 729.182 515.322 729.824 529.307C730.51 544.428 730.661 548.97 730.661 587.248C730.661 625.527 730.51 630.069 729.824 645.19C729.182 659.174 726.843 666.764 724.88 671.814C722.284 678.508 719.175 683.274 714.157 688.291C709.138 693.312 704.368 696.419 697.674 699.019C692.626 700.99 685.034 703.322 671.05 703.961C655.941 704.648 651.398 704.797 613.113 704.797C574.821 704.797 570.286 704.648 555.17 703.961C541.19 703.316 533.603 700.979 528.545 699.016C521.853 696.416 517.074 693.308 512.055 688.288C507.037 683.268 503.93 678.499 501.324 671.802C499.362 666.752 497.023 659.162 496.387 645.178C495.7 630.058 495.563 625.515 495.563 587.213C495.563 548.91 495.7 544.392 496.387 529.272C497.026 515.287 499.362 507.697 501.324 502.641C503.924 495.948 507.037 491.166 512.055 486.146C517.074 481.126 521.853 478.019 528.545 475.413C533.6 473.44 541.19 471.11 555.17 470.467C568.399 469.869 573.523 469.69 600.246 469.66V469.696ZM689.652 493.512C680.151 493.512 672.446 501.212 672.446 510.718C672.446 520.22 680.151 527.93 689.652 527.93C699.154 527.93 706.859 520.22 706.859 510.718C706.859 501.215 699.154 493.512 689.652 493.512ZM613.113 513.622C572.444 513.622 539.475 546.603 539.475 587.281C539.475 627.96 572.444 660.925 613.113 660.925C653.775 660.925 686.739 627.96 686.739 587.281C686.739 546.603 653.775 513.622 613.113 513.622ZM613.113 539.471C639.504 539.471 660.907 560.875 660.907 587.281C660.907 613.685 639.504 635.092 613.113 635.092C586.715 635.092 565.312 613.685 565.312 587.281C565.312 560.875 586.715 539.471 613.113 539.471Z" fill="white"/>
</g>
</mask>
<g mask="url(#mask0_27_444)">
<g filter="url(#filter2_d_27_444)">
<path d="M831.948 443.848H469.71V806.191H831.948V443.848Z" fill="#7A07A3"/>
</g>
</g>
</g>
<g opacity="0.35" filter="url(#filter3_f_27_444)">
<mask id="mask1_27_444" style="mask-type:alpha" maskUnits="userSpaceOnUse" x="409" y="383" width="288" height="288">
<g opacity="0.35">
<path d="M552.739 383.455C513.795 383.455 508.909 383.626 493.614 384.322C478.348 385.021 467.929 387.438 458.812 390.986C449.381 394.649 441.381 399.55 433.411 407.525C425.435 415.498 420.536 423.5 416.861 432.931C413.307 442.054 410.887 452.48 410.2 467.743C409.516 483.042 409.336 487.934 409.336 526.888C409.336 565.843 409.51 570.716 410.203 586.016C410.905 601.286 413.321 611.708 416.864 620.828C420.53 630.262 425.429 638.264 433.402 646.237C441.369 654.215 449.369 659.128 458.794 662.791C467.917 666.339 478.339 668.756 493.602 669.455C508.897 670.151 513.781 670.321 552.717 670.321C591.665 670.321 596.541 670.151 611.83 669.455C627.097 668.756 637.527 666.339 646.651 662.791C656.077 659.128 664.069 654.215 672.038 646.237C680.007 638.264 684.913 630.262 688.58 620.831C692.112 611.708 694.527 601.283 695.244 586.019C695.931 570.719 696.112 565.843 696.112 526.888C696.112 487.934 695.931 483.045 695.244 467.746C694.527 452.477 692.112 442.054 688.58 432.934C684.913 423.5 680.007 415.498 672.038 407.525C664.061 399.547 656.084 394.646 646.643 390.986C637.504 387.438 627.075 385.021 611.808 384.322C596.518 383.626 591.65 383.455 552.694 383.455H552.739ZM539.874 409.304C543.692 409.297 547.955 409.304 552.739 409.304C591.024 409.304 595.56 409.441 610.676 410.128C624.66 410.767 632.244 413.104 637.3 415.067C643.994 417.667 648.764 420.775 653.783 425.795C658.801 430.815 661.903 435.596 664.506 442.29C666.469 447.34 668.808 454.93 669.45 468.914C670.136 484.035 670.287 488.577 670.287 526.855C670.287 565.134 670.136 569.676 669.45 584.797C668.808 598.782 666.469 606.371 664.506 611.421C661.91 618.115 658.801 622.881 653.783 627.898C648.764 632.919 643.994 636.026 637.3 638.626C632.252 640.598 624.66 642.929 610.676 643.568C595.567 644.255 591.024 644.405 552.739 644.405C514.45 644.405 509.912 644.255 494.796 643.568C480.816 642.923 473.229 640.586 468.171 638.623C461.479 636.023 456.7 632.916 451.681 627.895C446.663 622.875 443.556 618.106 440.95 611.409C438.988 606.359 436.649 598.769 436.013 584.785C435.326 569.665 435.188 565.122 435.188 526.82C435.188 488.517 435.326 483.999 436.013 468.879C436.652 454.894 438.988 447.304 440.95 442.248C443.55 435.555 446.663 430.773 451.681 425.753C456.7 420.733 461.479 417.626 468.171 415.02C473.226 413.047 480.816 410.717 494.796 410.074C508.024 409.476 513.15 409.297 539.874 409.267V409.304ZM629.278 433.119C619.777 433.119 612.072 440.82 612.072 450.325C612.072 459.827 619.777 467.537 629.278 467.537C638.78 467.537 646.485 459.827 646.485 450.325C646.485 440.823 638.78 433.119 629.278 433.119ZM552.739 453.23C512.072 453.23 479.101 486.21 479.101 526.888C479.101 567.567 512.072 600.532 552.739 600.532C593.401 600.532 626.365 567.567 626.365 526.888C626.365 486.21 593.401 453.23 552.739 453.23ZM552.739 479.078C579.13 479.078 600.533 500.482 600.533 526.888C600.533 553.292 579.13 574.699 552.739 574.699C526.339 574.699 504.941 553.292 504.941 526.888C504.941 500.482 526.339 479.078 552.739 479.078Z" fill="white"/>
</g>
</mask>
<g mask="url(#mask1_27_444)">
<g filter="url(#filter4_d_27_444)">
<path d="M771.574 383.455H409.336V745.798H771.574V383.455Z" fill="#7A07A3"/>
</g>
</g>
</g>
<g opacity="0.4" filter="url(#filter5_f_27_444)">
<mask id="mask2_27_444" style="mask-type:alpha" maskUnits="userSpaceOnUse" x="401" y="375" width="288" height="288">
<g opacity="0.4">
<path d="M545.193 375.906C506.249 375.906 501.362 376.077 486.067 376.773C470.802 377.472 460.383 379.889 451.266 383.437C441.834 387.1 433.834 392.001 425.865 399.976C417.889 407.948 412.989 415.951 409.315 425.382C405.76 434.505 403.34 444.931 402.653 460.194C401.97 475.493 401.79 480.385 401.79 519.339C401.79 558.293 401.964 563.167 402.656 578.467C403.358 593.737 405.775 604.159 409.318 613.279C412.983 622.713 417.883 630.715 425.856 638.688C433.823 646.666 441.822 651.579 451.248 655.242C460.371 658.789 470.793 661.207 486.055 661.906C501.35 662.602 506.234 662.772 545.173 662.772C584.119 662.772 588.994 662.602 604.284 661.906C619.551 661.207 629.98 658.789 639.104 655.242C648.53 651.579 656.522 646.666 664.492 638.688C672.461 630.715 677.366 622.713 681.034 613.282C684.566 604.159 686.981 593.734 687.698 578.47C688.385 563.17 688.566 558.293 688.566 519.339C688.566 480.385 688.385 475.496 687.698 460.197C686.981 444.928 684.566 434.505 681.034 425.385C677.366 415.951 672.461 407.948 664.492 399.976C656.515 391.998 648.538 387.097 639.097 383.437C629.958 379.889 619.528 377.472 604.261 376.773C588.972 376.077 584.104 375.906 545.146 375.906H545.193ZM532.328 401.754C536.146 401.748 540.405 401.754 545.193 401.754C583.478 401.754 588.013 401.892 603.129 402.579C617.113 403.218 624.698 405.555 629.754 407.518C636.448 410.118 641.218 413.226 646.236 418.246C651.255 423.266 654.356 428.047 656.96 434.741C658.922 439.791 661.262 447.38 661.903 461.365C662.59 476.486 662.741 481.028 662.741 519.306C662.741 557.585 662.59 562.127 661.903 577.248C661.262 591.232 658.922 598.822 656.96 603.872C654.364 610.566 651.255 615.332 646.236 620.349C641.218 625.37 636.448 628.477 629.754 631.077C624.705 633.049 617.113 635.38 603.129 636.019C588.021 636.706 583.478 636.856 545.193 636.856C506.903 636.856 502.366 636.706 487.25 636.019C473.27 635.374 465.682 633.037 460.624 631.074C453.933 628.474 449.153 625.367 444.135 620.346C439.116 615.326 436.009 610.557 433.404 603.86C431.442 598.81 429.102 591.22 428.466 577.236C427.779 562.116 427.642 557.573 427.642 519.271C427.642 480.968 427.779 476.45 428.466 461.33C429.105 447.345 431.442 439.755 433.404 434.699C436.003 428.006 439.116 423.224 444.135 418.204C449.153 413.184 453.933 410.077 460.624 407.471C465.679 405.498 473.27 403.168 487.25 402.525C500.478 401.927 505.604 401.748 532.328 401.718V401.754ZM621.732 425.57C612.231 425.57 604.525 433.27 604.525 442.776C604.525 452.278 612.231 459.988 621.732 459.988C631.233 459.988 638.938 452.278 638.938 442.776C638.938 433.273 631.233 425.57 621.732 425.57ZM545.193 445.68C504.525 445.68 471.555 478.661 471.555 519.339C471.555 560.018 504.525 592.983 545.193 592.983C585.855 592.983 618.819 560.018 618.819 519.339C618.819 478.661 585.855 445.68 545.193 445.68ZM545.193 471.529C571.584 471.529 592.986 492.933 592.986 519.339C592.986 545.743 571.584 567.15 545.193 567.15C518.793 567.15 497.395 545.743 497.395 519.339C497.395 492.933 518.793 471.529 545.193 471.529Z" fill="white"/>
</g>
</mask>
<g mask="url(#mask2_27_444)">
<g filter="url(#filter6_d_27_444)">
<path d="M764.028 375.906H401.79V738.249H764.028V375.906Z" fill="#7A07A3"/>
</g>
</g>
</g>
<g opacity="0.45" filter="url(#filter7_f_27_444)">
<mask id="mask3_27_444" style="mask-type:alpha" maskUnits="userSpaceOnUse" x="371" y="345" width="288" height="288">
<g opacity="0.45">
<path d="M515.004 345.71C476.062 345.71 471.175 345.88 455.88 346.576C440.615 347.276 430.196 349.693 421.079 353.24C411.647 356.904 403.647 361.805 395.678 369.779C387.702 377.752 382.802 385.755 379.128 395.185C375.573 404.308 373.153 414.734 372.466 429.998C371.783 445.297 371.603 450.189 371.603 489.143C371.603 528.097 371.777 532.971 372.469 548.27C373.171 563.54 375.588 573.962 379.131 583.082C382.796 592.517 387.696 600.519 395.669 608.491C403.636 616.47 411.635 621.382 421.06 625.046C430.184 628.593 440.606 631.01 455.868 631.709C471.163 632.405 476.047 632.576 514.986 632.576C553.932 632.576 558.807 632.405 574.097 631.709C589.364 631.01 599.793 628.593 608.917 625.046C618.343 621.382 626.335 616.47 634.305 608.491C642.274 600.519 647.179 592.517 650.847 583.085C654.379 573.962 656.794 563.537 657.511 548.274C658.198 532.974 658.379 528.097 658.379 489.143C658.379 450.189 658.198 445.3 657.511 430.001C656.794 414.731 654.379 404.308 650.847 395.188C647.179 385.755 642.274 377.752 634.305 369.779C626.328 361.802 618.351 356.901 608.91 353.24C599.771 349.693 589.341 347.276 574.074 346.576C558.785 345.88 553.917 345.71 514.959 345.71H515.004ZM502.141 371.558C505.959 371.552 510.218 371.558 515.004 371.558C553.291 371.558 557.826 371.695 572.942 372.382C586.926 373.022 594.511 375.359 599.567 377.322C606.261 379.922 611.031 383.03 616.049 388.05C621.068 393.07 624.169 397.851 626.773 404.545C628.735 409.594 631.075 417.184 631.716 431.169C632.403 446.29 632.554 450.831 632.554 489.11C632.554 527.389 632.403 531.93 631.716 547.051C631.075 561.036 628.735 568.626 626.773 573.675C624.177 580.369 621.068 585.136 616.049 590.153C611.031 595.173 606.261 598.28 599.567 600.88C594.518 602.852 586.926 605.183 572.942 605.823C557.834 606.51 553.291 606.659 515.004 606.659C476.716 606.659 472.179 606.51 457.063 605.823C443.083 605.177 435.495 602.841 430.437 600.877C423.746 598.277 418.966 595.17 413.948 590.15C408.929 585.13 405.822 580.36 403.217 573.663C401.255 568.614 398.915 561.024 398.279 547.039C397.592 531.919 397.455 527.377 397.455 489.074C397.455 450.771 397.592 446.253 398.279 431.133C398.918 417.149 401.255 409.559 403.217 404.502C405.816 397.809 408.929 393.028 413.948 388.007C418.966 382.987 423.746 379.88 430.437 377.274C435.492 375.302 443.083 372.971 457.063 372.329C470.291 371.731 475.417 371.552 502.141 371.522V371.558ZM591.545 395.373C582.044 395.373 574.338 403.074 574.338 412.58C574.338 422.082 582.044 429.792 591.545 429.792C601.046 429.792 608.751 422.082 608.751 412.58C608.751 403.077 601.046 395.373 591.545 395.373ZM515.004 415.484C474.338 415.484 441.368 448.465 441.368 489.143C441.368 529.821 474.338 562.787 515.004 562.787C555.668 562.787 588.632 529.821 588.632 489.143C588.632 448.465 555.668 415.484 515.004 415.484ZM515.004 441.332C541.4 441.332 562.799 462.736 562.799 489.143C562.799 515.547 541.4 536.954 515.004 536.954C488.606 536.954 467.208 515.547 467.208 489.143C467.208 462.736 488.606 441.332 515.004 441.332Z" fill="white"/>
</g>
</mask>
<g mask="url(#mask3_27_444)">
<g filter="url(#filter8_d_27_444)">
<path d="M733.841 345.71H371.603V708.053H733.841V345.71Z" fill="#7A07A3"/>
</g>
</g>
</g>
<g opacity="0.5" filter="url(#filter9_f_27_444)">
<mask id="mask4_27_444" style="mask-type:alpha" maskUnits="userSpaceOnUse" x="341" y="315" width="288" height="288">
<g opacity="0.5">
<path d="M484.817 315.513C445.875 315.513 440.988 315.684 425.693 316.38C410.428 317.079 400.009 319.496 390.892 323.044C381.46 326.707 373.46 331.608 365.491 339.583C357.515 347.556 352.615 355.558 348.941 364.989C345.386 374.112 342.966 384.538 342.279 399.801C341.596 415.1 341.416 419.992 341.416 458.946C341.416 497.901 341.59 502.774 342.282 518.074C342.984 533.344 345.401 543.766 348.944 552.886C352.609 562.32 357.509 570.322 365.482 578.295C373.449 586.273 381.448 591.186 390.873 594.849C399.997 598.397 410.419 600.814 425.681 601.513C440.976 602.209 445.86 602.379 484.799 602.379C523.744 602.379 528.617 602.209 543.911 601.513C559.177 600.814 569.606 598.397 578.73 594.849C588.156 591.186 596.148 586.273 604.118 578.295C612.087 570.322 616.992 562.32 620.66 552.889C624.192 543.766 626.607 533.341 627.324 518.077C628.011 502.777 628.192 497.901 628.192 458.946C628.192 419.992 628.011 415.103 627.324 399.804C626.607 384.535 624.192 374.112 620.66 364.992C616.992 355.558 612.087 347.556 604.118 339.583C596.141 331.605 588.164 326.704 578.723 323.044C569.584 319.496 559.154 317.079 543.891 316.38C528.596 315.684 523.727 315.513 484.772 315.513H484.817ZM471.954 341.362C475.772 341.356 480.031 341.362 484.817 341.362C523.102 341.362 527.64 341.499 542.758 342.186C556.739 342.825 564.324 345.163 569.38 347.125C576.074 349.725 580.844 352.833 585.862 357.853C590.881 362.874 593.982 367.654 596.586 374.348C598.548 379.398 600.888 386.988 601.529 400.972C602.216 416.093 602.367 420.635 602.367 458.913C602.367 497.192 602.216 501.734 601.529 516.855C600.888 530.84 598.548 538.429 596.586 543.479C593.99 550.173 590.881 554.939 585.862 559.957C580.844 564.977 576.074 568.084 569.38 570.684C564.331 572.656 556.739 574.987 542.758 575.626C527.643 576.313 523.102 576.463 484.817 576.463C446.529 576.463 441.992 576.313 426.876 575.626C412.896 574.981 405.308 572.644 400.25 570.681C393.559 568.081 388.779 564.974 383.761 559.953C378.742 554.933 375.635 550.164 373.03 543.467C371.068 538.417 368.728 530.828 368.092 516.843C367.405 501.723 367.268 497.18 367.268 458.878C367.268 420.575 367.405 416.057 368.092 400.937C368.731 386.952 371.068 379.362 373.03 374.306C375.629 367.613 378.742 362.831 383.761 357.811C388.779 352.791 393.559 349.684 400.25 347.078C405.305 345.105 412.896 342.775 426.876 342.132C440.104 341.534 445.23 341.356 471.954 341.325V341.362ZM561.358 365.177C551.857 365.177 544.151 372.878 544.151 382.383C544.151 391.885 551.857 399.595 561.358 399.595C570.859 399.595 578.564 391.885 578.564 382.383C578.564 372.881 570.859 365.177 561.358 365.177ZM484.817 385.288C444.151 385.288 411.181 418.268 411.181 458.946C411.181 499.625 444.151 532.59 484.817 532.59C525.483 532.59 558.445 499.625 558.445 458.946C558.445 418.268 525.483 385.288 484.817 385.288ZM484.817 411.136C511.213 411.136 532.614 432.54 532.614 458.946C532.614 485.35 511.213 506.757 484.817 506.757C458.419 506.757 437.021 485.35 437.021 458.946C437.021 432.54 458.419 411.136 484.817 411.136Z" fill="white"/>
</g>
</mask>
<g mask="url(#mask4_27_444)">
<g filter="url(#filter10_d_27_444)">
<path d="M703.654 315.513H341.416V677.856H703.654V315.513Z" fill="#7A07A3"/>
</g>
</g>
</g>
<g opacity="0.55" filter="url(#filter11_f_27_444)">
<mask id="mask5_27_444" style="mask-type:alpha" maskUnits="userSpaceOnUse" x="326" y="300" width="288" height="288">
<g opacity="0.55">
<path d="M469.724 300.415C430.782 300.415 425.895 300.586 410.6 301.282C395.335 301.981 384.916 304.398 375.798 307.945C366.367 311.609 358.367 316.51 350.398 324.485C342.421 332.457 337.522 340.46 333.848 349.891C330.293 359.014 327.873 369.44 327.186 384.703C326.502 400.002 326.323 404.894 326.323 443.848C326.323 482.802 326.496 487.676 327.189 502.976C327.891 518.245 330.307 528.668 333.851 537.788C337.516 547.222 342.415 555.224 350.389 563.197C358.356 571.175 366.355 576.087 375.78 579.751C384.903 583.298 395.326 585.716 410.588 586.415C425.883 587.111 430.767 587.281 469.706 587.281C508.651 587.281 513.524 587.111 528.818 586.415C544.084 585.716 554.513 583.298 563.637 579.751C573.063 576.087 581.055 571.175 589.024 563.197C596.994 555.224 601.899 547.222 605.567 537.791C609.099 528.668 611.514 518.242 612.231 502.979C612.917 487.679 613.098 482.802 613.098 443.848C613.098 404.894 612.917 400.005 612.231 384.706C611.514 369.437 609.099 359.014 605.567 349.894C601.899 340.46 596.994 332.457 589.024 324.485C581.047 316.507 573.071 311.606 563.63 307.945C554.491 304.398 544.062 301.981 528.798 301.282C513.503 300.586 508.634 300.415 469.679 300.415H469.724ZM456.861 326.263C460.679 326.257 464.938 326.263 469.724 326.263C508.009 326.263 512.547 326.401 527.665 327.088C541.646 327.727 549.23 330.064 554.287 332.027C560.981 334.627 565.75 337.735 570.769 342.755C575.787 347.775 578.889 352.556 581.493 359.25C583.455 364.3 585.794 371.889 586.436 385.874C587.123 400.995 587.274 405.537 587.274 443.815C587.274 482.094 587.123 486.636 586.436 501.757C585.794 515.741 583.455 523.331 581.493 528.381C578.897 535.075 575.787 539.841 570.769 544.858C565.75 549.878 560.981 552.986 554.287 555.586C549.238 557.557 541.646 559.889 527.665 560.528C512.55 561.215 508.009 561.364 469.724 561.364C431.436 561.364 426.899 561.215 411.783 560.528C397.802 559.883 390.215 557.546 385.157 555.583C378.465 552.983 373.686 549.875 368.667 544.855C363.649 539.835 360.542 535.066 357.937 528.369C355.975 523.319 353.635 515.729 352.999 501.745C352.312 486.624 352.175 482.082 352.175 443.78C352.175 405.477 352.312 400.959 352.999 385.839C353.638 371.854 355.975 364.264 357.937 359.208C360.536 352.515 363.649 347.733 368.667 342.713C373.686 337.693 378.465 334.585 385.157 331.98C390.212 330.007 397.802 327.677 411.783 327.034C425.011 326.436 430.136 326.257 456.861 326.227V326.263ZM546.265 350.079C536.765 350.079 529.057 357.779 529.057 367.285C529.057 376.787 536.765 384.497 546.265 384.497C555.766 384.497 563.471 376.787 563.471 367.285C563.471 357.782 555.766 350.079 546.265 350.079ZM469.724 370.189C429.058 370.189 396.088 403.17 396.088 443.848C396.088 484.527 429.058 517.492 469.724 517.492C510.39 517.492 543.349 484.527 543.349 443.848C543.349 403.17 510.39 370.189 469.724 370.189ZM469.724 396.037C496.12 396.037 517.521 417.441 517.521 443.848C517.521 470.252 496.12 491.659 469.724 491.659C443.326 491.659 421.928 470.252 421.928 443.848C421.928 417.441 443.326 396.037 469.724 396.037Z" fill="white"/>
</g>
</mask>
<g mask="url(#mask5_27_444)">
<g filter="url(#filter12_d_27_444)">
<path d="M688.56 300.415H326.323V662.758H688.56V300.415Z" fill="#7A07A3"/>
</g>
</g>
</g>
<g opacity="0.6" filter="url(#filter13_f_27_444)">
<mask id="mask6_27_444" style="mask-type:alpha" maskUnits="userSpaceOnUse" x="311" y="285" width="288" height="288">
<g opacity="0.6">
<path d="M454.63 285.317C415.688 285.317 410.801 285.488 395.506 286.184C380.241 286.883 369.822 289.3 360.705 292.847C351.273 296.511 343.273 301.412 335.304 309.387C327.328 317.359 322.428 325.362 318.754 334.792C315.199 343.915 312.779 354.341 312.092 369.605C311.409 384.904 311.229 389.796 311.229 428.75C311.229 467.704 311.403 472.578 312.095 487.878C312.797 503.147 315.214 513.569 318.757 522.69C322.422 532.124 327.322 540.126 335.295 548.098C343.262 556.077 351.261 560.989 360.686 564.653C369.81 568.2 380.232 570.617 395.494 571.316C410.789 572.012 415.673 572.183 454.612 572.183C493.557 572.183 498.43 572.012 513.724 571.316C528.99 570.617 539.421 568.2 548.543 564.653C557.969 560.989 565.961 556.077 573.931 548.098C581.9 540.126 586.805 532.124 590.473 522.693C594.005 513.569 596.42 503.144 597.137 487.881C597.824 472.581 598.005 467.704 598.005 428.75C598.005 389.796 597.824 384.907 597.137 369.608C596.42 354.338 594.005 343.915 590.473 334.795C586.805 325.362 581.9 317.359 573.931 309.387C565.954 301.409 557.977 296.508 548.536 292.847C539.395 289.3 528.969 286.883 513.704 286.184C498.409 285.488 493.54 285.317 454.585 285.317H454.63ZM441.767 311.165C445.585 311.159 449.844 311.165 454.63 311.165C492.915 311.165 497.453 311.302 512.571 311.989C526.552 312.629 534.14 314.966 539.194 316.929C545.887 319.529 550.657 322.637 555.675 327.657C560.694 332.677 563.795 337.458 566.399 344.152C568.361 349.201 570.701 356.791 571.342 370.776C572.029 385.897 572.18 390.438 572.18 428.717C572.18 466.996 572.029 471.538 571.342 486.658C570.701 500.643 568.361 508.233 566.399 513.283C563.803 519.976 560.694 524.743 555.675 529.76C550.657 534.78 545.887 537.887 539.194 540.487C534.146 542.459 526.552 544.79 512.571 545.43C497.456 546.117 492.915 546.266 454.63 546.266C416.342 546.266 411.805 546.117 396.689 545.43C382.709 544.784 375.121 542.448 370.063 540.484C363.372 537.884 358.592 534.777 353.574 529.757C348.555 524.737 345.448 519.967 342.843 513.271C340.881 508.221 338.541 500.631 337.905 486.646C337.218 471.526 337.081 466.984 337.081 428.681C337.081 390.379 337.218 385.86 337.905 370.74C338.544 356.756 340.881 349.166 342.843 344.109C345.442 337.416 348.555 332.635 353.574 327.615C358.592 322.594 363.372 319.487 370.063 316.881C375.118 314.909 382.709 312.578 396.689 311.936C409.917 311.338 415.043 311.159 441.767 311.129V311.165ZM531.17 334.98C521.671 334.98 513.964 342.681 513.964 352.187C513.964 361.689 521.671 369.399 531.17 369.399C540.67 369.399 548.377 361.689 548.377 352.187C548.377 342.684 540.67 334.98 531.17 334.98ZM454.63 355.091C413.964 355.091 380.994 388.072 380.994 428.75C380.994 469.428 413.964 502.394 454.63 502.394C495.296 502.394 528.255 469.428 528.255 428.75C528.255 388.072 495.296 355.091 454.63 355.091ZM454.63 380.939C481.026 380.939 502.427 402.343 502.427 428.75C502.427 455.154 481.026 476.561 454.63 476.561C428.232 476.561 406.834 455.154 406.834 428.75C406.834 402.343 428.232 380.939 454.63 380.939Z" fill="white"/>
</g>
</mask>
<g mask="url(#mask6_27_444)">
<g filter="url(#filter14_d_27_444)">
<path d="M673.467 285.317H311.229V647.66H673.467V285.317Z" fill="#7A07A3"/>
</g>
</g>
</g>
<g opacity="0.6" filter="url(#filter15_f_27_444)">
<mask id="mask7_27_444" style="mask-type:alpha" maskUnits="userSpaceOnUse" x="303" y="277" width="288" height="288">
<g opacity="0.6">
<path d="M447.084 277.768C408.141 277.768 403.255 277.938 387.96 278.635C372.694 279.334 362.275 281.751 353.158 285.298C343.727 288.962 335.727 293.863 327.757 301.837C319.781 309.81 314.882 317.813 311.207 327.243C307.653 336.366 305.233 346.792 304.546 362.056C303.862 377.355 303.683 382.247 303.683 421.201C303.683 460.155 303.856 465.029 304.549 480.329C305.251 495.598 307.667 506.02 311.21 515.14C314.876 524.575 319.775 532.577 327.748 540.549C335.715 548.528 343.715 553.44 353.14 557.104C362.263 560.651 372.685 563.068 387.948 563.767C403.243 564.463 408.127 564.634 447.066 564.634C486.011 564.634 490.884 564.463 506.178 563.767C521.443 563.068 531.875 560.651 540.998 557.104C550.423 553.44 558.415 548.528 566.384 540.549C574.354 532.577 579.259 524.575 582.927 515.143C586.459 506.02 588.874 495.595 589.59 480.332C590.277 465.032 590.458 460.155 590.458 421.201C590.458 382.247 590.277 377.358 589.59 362.059C588.874 346.789 586.459 336.366 582.927 327.246C579.259 317.813 574.354 309.81 566.384 301.837C558.407 293.86 550.43 288.959 540.989 285.298C531.848 281.751 521.422 279.334 506.158 278.635C490.863 277.938 485.993 277.768 447.039 277.768H447.084ZM434.221 303.616C438.039 303.61 442.298 303.616 447.084 303.616C485.369 303.616 489.906 303.753 505.025 304.44C519.006 305.08 526.593 307.417 531.647 309.38C538.339 311.98 543.11 315.088 548.129 320.108C553.147 325.128 556.249 329.909 558.853 336.603C560.815 341.652 563.154 349.242 563.796 363.227C564.482 378.348 564.633 382.889 564.633 421.168C564.633 459.447 564.482 463.988 563.796 479.109C563.154 493.094 560.815 500.684 558.853 505.734C556.257 512.427 553.147 517.194 548.129 522.211C543.107 527.231 538.342 530.338 531.647 532.938C526.599 534.91 519.006 537.241 505.025 537.881C489.909 538.568 485.369 538.717 447.084 538.717C408.796 538.717 404.259 538.568 389.143 537.881C375.162 537.235 367.575 534.899 362.517 532.935C355.825 530.335 351.046 527.228 346.027 522.208C341.009 517.188 337.902 512.418 335.297 505.721C333.334 500.672 330.995 493.082 330.359 479.097C329.672 463.977 329.535 459.435 329.535 421.132C329.535 382.83 329.672 378.311 330.359 363.191C330.998 349.207 333.334 341.617 335.297 336.56C337.896 329.867 341.009 325.086 346.027 320.066C351.046 315.045 355.825 311.938 362.517 309.332C367.572 307.36 375.162 305.029 389.143 304.387C402.37 303.789 407.496 303.61 434.221 303.58V303.616ZM523.624 327.431C514.125 327.431 506.417 335.132 506.417 344.638C506.417 354.14 514.125 361.85 523.624 361.85C533.124 361.85 540.831 354.14 540.831 344.638C540.831 335.135 533.124 327.431 523.624 327.431ZM447.084 347.542C406.418 347.542 373.448 380.523 373.448 421.201C373.448 461.879 406.418 494.845 447.084 494.845C487.75 494.845 520.708 461.879 520.708 421.201C520.708 380.523 487.75 347.542 447.084 347.542ZM447.084 373.39C473.479 373.39 494.88 394.794 494.88 421.201C494.88 447.605 473.479 469.012 447.084 469.012C420.686 469.012 399.288 447.605 399.288 421.201C399.288 394.794 420.686 373.39 447.084 373.39Z" fill="white"/>
</g>
</mask>
<g mask="url(#mask7_27_444)">
<g filter="url(#filter16_d_27_444)">
<path d="M665.92 277.768H303.683V640.111H665.92V277.768Z" fill="#7A07A3"/>
</g>
</g>
</g>
<g opacity="0.6" filter="url(#filter17_f_27_444)">
<mask id="mask8_27_444" style="mask-type:alpha" maskUnits="userSpaceOnUse" x="296" y="270" width="287" height="288">
<g opacity="0.6">
<path d="M439.537 270.219C400.595 270.219 395.708 270.389 380.413 271.085C365.148 271.784 354.729 274.202 345.611 277.749C336.18 281.413 328.18 286.314 320.211 294.288C312.234 302.261 307.335 310.264 303.661 319.694C300.106 328.817 297.686 339.243 296.999 354.507C296.315 369.806 296.136 374.698 296.136 413.652C296.136 452.606 296.309 457.48 297.002 472.779C297.704 488.049 300.12 498.471 303.664 507.591C307.329 517.026 312.228 525.028 320.202 533C328.169 540.979 336.168 545.891 345.593 549.555C354.716 553.102 365.139 555.519 380.401 556.218C395.696 556.914 400.58 557.085 439.519 557.085C478.464 557.085 483.337 556.914 498.631 556.218C513.897 555.519 524.328 553.102 533.451 549.555C542.879 545.891 550.868 540.979 558.837 533C566.807 525.028 571.712 517.026 575.38 507.594C578.912 498.471 581.327 488.046 582.044 472.782C582.73 457.483 582.911 452.606 582.911 413.652C582.911 374.698 582.73 369.809 582.044 354.51C581.327 339.24 578.912 328.817 575.38 319.697C571.712 310.264 566.807 302.261 558.837 294.288C550.86 286.31 542.882 281.41 533.442 277.749C524.301 274.202 513.875 271.784 498.611 271.085C483.316 270.389 478.447 270.219 439.492 270.219H439.537ZM426.674 296.067C430.492 296.061 434.751 296.067 439.537 296.067C477.822 296.067 482.36 296.204 497.478 296.891C511.459 297.531 519.046 299.868 524.101 301.831C530.792 304.431 535.563 307.539 540.579 312.559C545.6 317.579 548.702 322.36 551.306 329.054C553.268 334.103 555.607 341.693 556.249 355.678C556.936 370.799 557.087 375.34 557.087 413.619C557.087 451.898 556.936 456.439 556.249 471.56C555.607 485.545 553.268 493.135 551.306 498.184C548.71 504.878 545.6 509.645 540.579 514.662C535.56 519.682 530.795 522.789 524.101 525.389C519.053 527.361 511.459 529.692 497.478 530.332C482.363 531.019 477.822 531.168 439.537 531.168C401.249 531.168 396.712 531.019 381.596 530.332C367.615 529.686 360.028 527.35 354.97 525.386C348.278 522.786 343.499 519.679 338.48 514.659C333.462 509.639 330.355 504.869 327.75 498.172C325.788 493.123 323.448 485.533 322.812 471.548C322.125 456.428 321.988 451.886 321.988 413.583C321.988 375.28 322.125 370.762 322.812 355.642C323.451 341.658 325.788 334.068 327.75 329.011C330.349 322.318 333.462 317.537 338.48 312.516C343.499 307.496 348.278 304.389 354.97 301.783C360.025 299.811 367.615 297.48 381.596 296.838C394.824 296.24 399.949 296.061 426.674 296.031V296.067ZM516.077 319.882C506.578 319.882 498.87 327.583 498.87 337.089C498.87 346.591 506.578 354.301 516.077 354.301C525.577 354.301 533.284 346.591 533.284 337.089C533.284 327.586 525.577 319.882 516.077 319.882ZM439.537 339.993C398.871 339.993 365.901 372.973 365.901 413.652C365.901 454.33 398.871 487.296 439.537 487.296C480.203 487.296 513.162 454.33 513.162 413.652C513.162 372.973 480.203 339.993 439.537 339.993ZM439.537 365.841C465.933 365.841 487.334 387.245 487.334 413.652C487.334 440.056 465.933 461.463 439.537 461.463C413.139 461.463 391.741 440.056 391.741 413.652C391.741 387.245 413.139 365.841 439.537 365.841Z" fill="white"/>
</g>
</mask>
<g mask="url(#mask8_27_444)">
<g filter="url(#filter18_d_27_444)">
<path d="M658.373 270.219H296.136V632.562H658.373V270.219Z" fill="#7A07A3"/>
</g>
</g>
</g>
<g opacity="0.6" filter="url(#filter19_f_27_444)">
<mask id="mask9_27_444" style="mask-type:alpha" maskUnits="userSpaceOnUse" x="292" y="266" width="288" height="288">
<g opacity="0.6">
<path d="M435.764 266.444C396.821 266.444 391.935 266.615 376.64 267.311C361.374 268.01 350.955 270.427 341.838 273.974C332.407 277.638 324.406 282.539 316.437 290.514C308.461 298.486 303.562 306.489 299.887 315.92C296.333 325.043 293.912 335.469 293.226 350.732C292.542 366.031 292.362 370.923 292.362 409.877C292.362 448.831 292.536 453.705 293.229 469.005C293.931 484.274 296.347 494.697 299.89 503.817C303.556 513.251 308.455 521.253 316.428 529.226C324.395 537.204 332.395 542.116 341.82 545.78C350.943 549.327 361.365 551.745 376.628 552.444C391.923 553.14 396.807 553.31 435.746 553.31C474.69 553.31 479.563 553.14 494.858 552.444C510.123 551.745 520.554 549.327 529.677 545.78C539.106 542.116 547.095 537.204 555.064 529.226C563.033 521.253 567.939 513.251 571.606 503.82C575.138 494.697 577.553 484.271 578.27 469.008C578.957 453.708 579.138 448.831 579.138 409.877C579.138 370.923 578.957 366.034 578.27 350.735C577.553 335.466 575.138 325.043 571.606 315.923C567.939 306.489 563.033 298.486 555.064 290.514C547.087 282.536 539.109 277.635 529.668 273.974C520.528 270.427 510.102 268.01 494.837 267.311C479.542 266.615 474.673 266.444 435.718 266.444H435.764ZM422.9 292.292C426.718 292.286 430.978 292.292 435.764 292.292C474.048 292.292 478.586 292.43 493.704 293.117C507.686 293.756 515.273 296.093 520.327 298.056C527.019 300.656 531.79 303.764 536.805 308.784C541.824 313.804 544.931 318.585 547.532 325.279C549.494 330.329 551.834 337.918 552.475 351.903C553.162 367.024 553.313 371.566 553.313 409.844C553.313 448.123 553.162 452.665 552.475 467.786C551.834 481.77 549.494 489.36 547.532 494.41C544.937 501.104 541.824 505.87 536.805 510.887C531.787 515.907 527.022 519.015 520.327 521.615C515.279 523.586 507.686 525.918 493.704 526.557C478.589 527.244 474.048 527.393 435.764 527.393C397.475 527.393 392.938 527.244 377.822 526.557C363.842 525.912 356.254 523.575 351.197 521.612C344.505 519.012 339.726 515.904 334.707 510.884C329.688 505.864 326.581 501.095 323.976 494.398C322.014 489.348 319.675 481.758 319.038 467.774C318.352 452.653 318.214 448.111 318.214 409.809C318.214 371.506 318.352 366.988 319.038 351.868C319.678 337.883 322.014 330.293 323.976 325.237C326.575 318.544 329.688 313.762 334.707 308.742C339.726 303.722 344.505 300.614 351.197 298.009C356.251 296.036 363.842 293.706 377.822 293.063C391.05 292.465 396.176 292.286 422.9 292.256V292.292ZM512.303 316.108C502.804 316.108 495.097 323.808 495.097 333.314C495.097 342.816 502.804 350.526 512.303 350.526C521.803 350.526 529.511 342.816 529.511 333.314C529.511 323.811 521.803 316.108 512.303 316.108ZM435.764 336.218C395.097 336.218 362.127 369.199 362.127 409.877C362.127 450.556 395.097 483.521 435.764 483.521C476.429 483.521 509.388 450.556 509.388 409.877C509.388 369.199 476.429 336.218 435.764 336.218ZM435.764 362.066C462.159 362.066 483.56 383.47 483.56 409.877C483.56 436.281 462.159 457.688 435.764 457.688C409.365 457.688 387.967 436.281 387.967 409.877C387.967 383.47 409.365 362.066 435.764 362.066Z" fill="white"/>
</g>
</mask>
<g mask="url(#mask9_27_444)">
<g filter="url(#filter20_d_27_444)">
<path d="M654.6 266.444H292.362V628.787H654.6V266.444Z" fill="#7A07A3"/>
</g>
</g>
</g>
<g filter="url(#filter21_ii_27_444)">
<mask id="mask10_27_444" style="mask-type:alpha" maskUnits="userSpaceOnUse" x="288" y="262" width="288" height="288">
<path d="M431.99 262.67C393.048 262.67 388.161 262.84 372.866 263.536C357.601 264.235 347.182 266.653 338.064 270.2C328.633 273.864 320.633 278.764 312.664 286.739C304.688 294.712 299.788 302.715 296.114 312.145C292.559 321.268 290.139 331.694 289.452 346.958C288.769 362.257 288.589 367.149 288.589 406.103C288.589 445.057 288.762 449.931 289.455 465.23C290.157 480.5 292.574 490.922 296.117 500.042C299.782 509.476 304.682 517.478 312.655 525.451C320.622 533.43 328.621 538.342 338.046 542.006C347.17 545.553 357.592 547.97 372.854 548.669C388.149 549.365 393.033 549.536 431.972 549.536C470.917 549.536 475.79 549.365 491.084 548.669C506.35 547.97 516.781 545.553 525.904 542.006C535.332 538.342 543.32 533.43 551.29 525.451C559.26 517.478 564.165 509.476 567.833 500.045C571.365 490.922 573.78 480.497 574.497 465.233C575.183 449.934 575.365 445.057 575.365 406.103C575.365 367.149 575.183 362.26 574.497 346.961C573.78 331.691 571.365 321.268 567.833 312.148C564.165 302.715 559.26 294.712 551.29 286.739C543.311 278.761 535.335 273.86 525.895 270.2C516.754 266.653 506.329 264.235 491.064 263.536C475.769 262.84 470.9 262.67 431.945 262.67H431.99ZM419.127 288.518C422.945 288.512 427.204 288.518 431.99 288.518C470.275 288.518 474.813 288.655 489.931 289.342C503.912 289.982 511.5 292.319 516.554 294.282C523.245 296.881 528.016 299.989 533.032 305.01C538.051 310.03 541.158 314.811 543.762 321.504C545.721 326.554 548.061 334.144 548.702 348.129C549.389 363.249 549.54 367.791 549.54 406.069C549.54 444.349 549.389 448.89 548.702 464.011C548.061 477.996 545.721 485.586 543.762 490.635C541.164 497.329 538.051 502.096 533.032 507.113C528.013 512.133 523.248 515.24 516.554 517.84C511.506 519.812 503.912 522.143 489.931 522.782C474.816 523.469 470.275 523.619 431.99 523.619C393.702 523.619 389.165 523.469 374.049 522.782C360.068 522.137 352.481 519.801 347.423 517.837C340.731 515.237 335.952 512.13 330.934 507.11C325.915 502.09 322.808 497.32 320.203 490.623C318.241 485.574 315.901 477.984 315.265 463.999C314.578 448.879 314.441 444.337 314.441 406.034C314.441 367.731 314.578 363.213 315.265 348.093C315.904 334.108 318.241 326.518 320.203 321.462C322.802 314.769 325.915 309.987 330.934 304.967C335.952 299.947 340.731 296.84 347.423 294.234C352.478 292.261 360.068 289.931 374.049 289.289C387.277 288.691 392.402 288.512 419.127 288.482V288.518ZM508.53 312.333C499.031 312.333 491.323 320.034 491.323 329.54C491.323 339.042 499.031 346.752 508.53 346.752C518.03 346.752 525.737 339.042 525.737 329.54C525.737 320.037 518.03 312.333 508.53 312.333ZM431.99 332.444C391.324 332.444 358.354 365.424 358.354 406.103C358.354 446.781 391.324 479.747 431.99 479.747C472.656 479.747 505.615 446.781 505.615 406.103C505.615 365.424 472.656 332.444 431.99 332.444ZM431.99 358.292C458.386 358.292 479.787 379.696 479.787 406.103C479.787 432.506 458.386 453.913 431.99 453.913C405.592 453.913 384.194 432.506 384.194 406.103C384.194 379.696 405.592 358.292 431.99 358.292Z" fill="white"/>
</mask>
<g mask="url(#mask10_27_444)">
<path d="M650.827 262.67H288.589V625.012H650.827V262.67Z" fill="url(#paint4_linear_27_444)"/>
</g>
</g>
<defs>
<filter id="filter0_ddddddd_27_444" x="0" y="0" width="871.5" height="924.754" filterUnits="userSpaceOnUse" color-interpolation-filters="sRGB">
<feFlood flood-opacity="0" result="BackgroundImageFix"/>
<feColorMatrix in="SourceAlpha" type="matrix" values="0 0 0 0 0 0 0 0 0 0 0 0 0 0 0 0 0 0 127 0" result="hardAlpha"/>
<feOffset dy="5"/>
<feGaussianBlur stdDeviation="5.5"/>
<feColorMatrix type="matrix" values="0 0 0 0 0 0 0 0 0 0 0 0 0 0 0 0 0 0 0.1 0"/>
<feBlend mode="normal" in2="BackgroundImageFix" result="effect1_dropShadow_27_444"/>
<feColorMatrix in="SourceAlpha" type="matrix" values="0 0 0 0 0 0 0 0 0 0 0 0 0 0 0 0 0 0 127 0" result="hardAlpha"/>
<feOffset dy="20"/>
<feGaussianBlur stdDeviation="10"/>
<feColorMatrix type="matrix" values="0 0 0 0 0 0 0 0 0 0 0 0 0 0 0 0 0 0 0.09 0"/>
<feBlend mode="normal" in2="effect1_dropShadow_27_444" result="effect2_dropShadow_27_444"/>
<feColorMatrix in="SourceAlpha" type="matrix" values="0 0 0 0 0 0 0 0 0 0 0 0 0 0 0 0 0 0 127 0" result="hardAlpha"/>
<feOffset dy="44"/>
<feGaussianBlur stdDeviation="13.5"/>
<feColorMatrix type="matrix" values="0 0 0 0 0 0 0 0 0 0 0 0 0 0 0 0 0 0 0.05 0"/>
<feBlend mode="normal" in2="effect2_dropShadow_27_444" result="effect3_dropShadow_27_444"/>
<feColorMatrix in="SourceAlpha" type="matrix" values="0 0 0 0 0 0 0 0 0 0 0 0 0 0 0 0 0 0 127 0" result="hardAlpha"/>
<feOffset dy="79"/>
<feGaussianBlur stdDeviation="16"/>
<feColorMatrix type="matrix" values="0 0 0 0 0 0 0 0 0 0 0 0 0 0 0 0 0 0 0.01 0"/>
<feBlend mode="normal" in2="effect3_dropShadow_27_444" result="effect4_dropShadow_27_444"/>
<feColorMatrix in="SourceAlpha" type="matrix" values="0 0 0 0 0 0 0 0 0 0 0 0 0 0 0 0 0 0 127 0" result="hardAlpha"/>
<feOffset dy="5"/>
<feGaussianBlur stdDeviation="5.5"/>
<feColorMatrix type="matrix" values="0 0 0 0 0 0 0 0 0 0 0 0 0 0 0 0 0 0 0.1 0"/>
<feBlend mode="normal" in2="effect4_dropShadow_27_444" result="effect5_dropShadow_27_444"/>
<feColorMatrix in="SourceAlpha" type="matrix" values="0 0 0 0 0 0 0 0 0 0 0 0 0 0 0 0 0 0 127 0" result="hardAlpha"/>
<feOffset dy="20"/>
<feGaussianBlur stdDeviation="10"/>
<feColorMatrix type="matrix" values="0 0 0 0 0 0 0 0 0 0 0 0 0 0 0 0 0 0 0.09 0"/>
<feBlend mode="normal" in2="effect5_dropShadow_27_444" result="effect6_dropShadow_27_444"/>
<feColorMatrix in="SourceAlpha" type="matrix" values="0 0 0 0 0 0 0 0 0 0 0 0 0 0 0 0 0 0 127 0" result="hardAlpha"/>
<feOffset dy="44"/>
<feGaussianBlur stdDeviation="13.5"/>
<feColorMatrix type="matrix" values="0 0 0 0 0 0 0 0 0 0 0 0 0 0 0 0 0 0 0.05 0"/>
<feBlend mode="normal" in2="effect6_dropShadow_27_444" result="effect7_dropShadow_27_444"/>
<feBlend mode="normal" in="SourceGraphic" in2="effect7_dropShadow_27_444" result="shape"/>
</filter>
<filter id="filter1_f_27_444" x="441.71" y="415.848" width="342.776" height="342.866" filterUnits="userSpaceOnUse" color-interpolation-filters="sRGB">
<feFlood flood-opacity="0" result="BackgroundImageFix"/>
<feBlend mode="normal" in="SourceGraphic" in2="BackgroundImageFix" result="shape"/>
<feGaussianBlur stdDeviation="14" result="effect1_foregroundBlur_27_444"/>
</filter>
<filter id="filter2_d_27_444" x="465.71" y="443.848" width="370.238" height="370.343" filterUnits="userSpaceOnUse" color-interpolation-filters="sRGB">
<feFlood flood-opacity="0" result="BackgroundImageFix"/>
<feColorMatrix in="SourceAlpha" type="matrix" values="0 0 0 0 0 0 0 0 0 0 0 0 0 0 0 0 0 0 127 0" result="hardAlpha"/>
<feOffset dy="4"/>
<feGaussianBlur stdDeviation="2"/>
<feComposite in2="hardAlpha" operator="out"/>
<feColorMatrix type="matrix" values="0 0 0 0 0 0 0 0 0 0 0 0 0 0 0 0 0 0 0.25 0"/>
<feBlend mode="normal" in2="BackgroundImageFix" result="effect1_dropShadow_27_444"/>
<feBlend mode="normal" in="SourceGraphic" in2="effect1_dropShadow_27_444" result="shape"/>
</filter>
<filter id="filter3_f_27_444" x="385.336" y="359.455" width="334.776" height="334.866" filterUnits="userSpaceOnUse" color-interpolation-filters="sRGB">
<feFlood flood-opacity="0" result="BackgroundImageFix"/>
<feBlend mode="normal" in="SourceGraphic" in2="BackgroundImageFix" result="shape"/>
<feGaussianBlur stdDeviation="12" result="effect1_foregroundBlur_27_444"/>
</filter>
<filter id="filter4_d_27_444" x="405.336" y="383.455" width="370.238" height="370.343" filterUnits="userSpaceOnUse" color-interpolation-filters="sRGB">
<feFlood flood-opacity="0" result="BackgroundImageFix"/>
<feColorMatrix in="SourceAlpha" type="matrix" values="0 0 0 0 0 0 0 0 0 0 0 0 0 0 0 0 0 0 127 0" result="hardAlpha"/>
<feOffset dy="4"/>
<feGaussianBlur stdDeviation="2"/>
<feComposite in2="hardAlpha" operator="out"/>
<feColorMatrix type="matrix" values="0 0 0 0 0 0 0 0 0 0 0 0 0 0 0 0 0 0 0.25 0"/>
<feBlend mode="normal" in2="BackgroundImageFix" result="effect1_dropShadow_27_444"/>
<feBlend mode="normal" in="SourceGraphic" in2="effect1_dropShadow_27_444" result="shape"/>
</filter>
<filter id="filter5_f_27_444" x="377.79" y="351.906" width="334.776" height="334.866" filterUnits="userSpaceOnUse" color-interpolation-filters="sRGB">
<feFlood flood-opacity="0" result="BackgroundImageFix"/>
<feBlend mode="normal" in="SourceGraphic" in2="BackgroundImageFix" result="shape"/>
<feGaussianBlur stdDeviation="12" result="effect1_foregroundBlur_27_444"/>
</filter>
<filter id="filter6_d_27_444" x="397.79" y="375.906" width="370.238" height="370.343" filterUnits="userSpaceOnUse" color-interpolation-filters="sRGB">
<feFlood flood-opacity="0" result="BackgroundImageFix"/>
<feColorMatrix in="SourceAlpha" type="matrix" values="0 0 0 0 0 0 0 0 0 0 0 0 0 0 0 0 0 0 127 0" result="hardAlpha"/>
<feOffset dy="4"/>
<feGaussianBlur stdDeviation="2"/>
<feComposite in2="hardAlpha" operator="out"/>
<feColorMatrix type="matrix" values="0 0 0 0 0 0 0 0 0 0 0 0 0 0 0 0 0 0 0.25 0"/>
<feBlend mode="normal" in2="BackgroundImageFix" result="effect1_dropShadow_27_444"/>
<feBlend mode="normal" in="SourceGraphic" in2="effect1_dropShadow_27_444" result="shape"/>
</filter>
<filter id="filter7_f_27_444" x="355.603" y="329.71" width="318.776" height="318.866" filterUnits="userSpaceOnUse" color-interpolation-filters="sRGB">
<feFlood flood-opacity="0" result="BackgroundImageFix"/>
<feBlend mode="normal" in="SourceGraphic" in2="BackgroundImageFix" result="shape"/>
<feGaussianBlur stdDeviation="8" result="effect1_foregroundBlur_27_444"/>
</filter>
<filter id="filter8_d_27_444" x="367.603" y="345.71" width="370.238" height="370.343" filterUnits="userSpaceOnUse" color-interpolation-filters="sRGB">
<feFlood flood-opacity="0" result="BackgroundImageFix"/>
<feColorMatrix in="SourceAlpha" type="matrix" values="0 0 0 0 0 0 0 0 0 0 0 0 0 0 0 0 0 0 127 0" result="hardAlpha"/>
<feOffset dy="4"/>
<feGaussianBlur stdDeviation="2"/>
<feComposite in2="hardAlpha" operator="out"/>
<feColorMatrix type="matrix" values="0 0 0 0 0 0 0 0 0 0 0 0 0 0 0 0 0 0 0.25 0"/>
<feBlend mode="normal" in2="BackgroundImageFix" result="effect1_dropShadow_27_444"/>
<feBlend mode="normal" in="SourceGraphic" in2="effect1_dropShadow_27_444" result="shape"/>
</filter>
<filter id="filter9_f_27_444" x="331.416" y="305.513" width="306.776" height="306.866" filterUnits="userSpaceOnUse" color-interpolation-filters="sRGB">
<feFlood flood-opacity="0" result="BackgroundImageFix"/>
<feBlend mode="normal" in="SourceGraphic" in2="BackgroundImageFix" result="shape"/>
<feGaussianBlur stdDeviation="5" result="effect1_foregroundBlur_27_444"/>
</filter>
<filter id="filter10_d_27_444" x="337.416" y="315.513" width="370.238" height="370.343" filterUnits="userSpaceOnUse" color-interpolation-filters="sRGB">
<feFlood flood-opacity="0" result="BackgroundImageFix"/>
<feColorMatrix in="SourceAlpha" type="matrix" values="0 0 0 0 0 0 0 0 0 0 0 0 0 0 0 0 0 0 127 0" result="hardAlpha"/>
<feOffset dy="4"/>
<feGaussianBlur stdDeviation="2"/>
<feComposite in2="hardAlpha" operator="out"/>
<feColorMatrix type="matrix" values="0 0 0 0 0 0 0 0 0 0 0 0 0 0 0 0 0 0 0.25 0"/>
<feBlend mode="normal" in2="BackgroundImageFix" result="effect1_dropShadow_27_444"/>
<feBlend mode="normal" in="SourceGraphic" in2="effect1_dropShadow_27_444" result="shape"/>
</filter>
<filter id="filter11_f_27_444" x="320.323" y="294.415" width="298.776" height="298.866" filterUnits="userSpaceOnUse" color-interpolation-filters="sRGB">
<feFlood flood-opacity="0" result="BackgroundImageFix"/>
<feBlend mode="normal" in="SourceGraphic" in2="BackgroundImageFix" result="shape"/>
<feGaussianBlur stdDeviation="3" result="effect1_foregroundBlur_27_444"/>
</filter>
<filter id="filter12_d_27_444" x="322.323" y="300.415" width="370.238" height="370.343" filterUnits="userSpaceOnUse" color-interpolation-filters="sRGB">
<feFlood flood-opacity="0" result="BackgroundImageFix"/>
<feColorMatrix in="SourceAlpha" type="matrix" values="0 0 0 0 0 0 0 0 0 0 0 0 0 0 0 0 0 0 127 0" result="hardAlpha"/>
<feOffset dy="4"/>
<feGaussianBlur stdDeviation="2"/>
<feComposite in2="hardAlpha" operator="out"/>
<feColorMatrix type="matrix" values="0 0 0 0 0 0 0 0 0 0 0 0 0 0 0 0 0 0 0.25 0"/>
<feBlend mode="normal" in2="BackgroundImageFix" result="effect1_dropShadow_27_444"/>
<feBlend mode="normal" in="SourceGraphic" in2="effect1_dropShadow_27_444" result="shape"/>
</filter>
<filter id="filter13_f_27_444" x="307.229" y="281.317" width="294.776" height="294.866" filterUnits="userSpaceOnUse" color-interpolation-filters="sRGB">
<feFlood flood-opacity="0" result="BackgroundImageFix"/>
<feBlend mode="normal" in="SourceGraphic" in2="BackgroundImageFix" result="shape"/>
<feGaussianBlur stdDeviation="2" result="effect1_foregroundBlur_27_444"/>
</filter>
<filter id="filter14_d_27_444" x="307.229" y="285.317" width="370.238" height="370.343" filterUnits="userSpaceOnUse" color-interpolation-filters="sRGB">
<feFlood flood-opacity="0" result="BackgroundImageFix"/>
<feColorMatrix in="SourceAlpha" type="matrix" values="0 0 0 0 0 0 0 0 0 0 0 0 0 0 0 0 0 0 127 0" result="hardAlpha"/>
<feOffset dy="4"/>
<feGaussianBlur stdDeviation="2"/>
<feComposite in2="hardAlpha" operator="out"/>
<feColorMatrix type="matrix" values="0 0 0 0 0 0 0 0 0 0 0 0 0 0 0 0 0 0 0.25 0"/>
<feBlend mode="normal" in2="BackgroundImageFix" result="effect1_dropShadow_27_444"/>
<feBlend mode="normal" in="SourceGraphic" in2="effect1_dropShadow_27_444" result="shape"/>
</filter>
<filter id="filter15_f_27_444" x="300.683" y="274.768" width="292.776" height="292.866" filterUnits="userSpaceOnUse" color-interpolation-filters="sRGB">
<feFlood flood-opacity="0" result="BackgroundImageFix"/>
<feBlend mode="normal" in="SourceGraphic" in2="BackgroundImageFix" result="shape"/>
<feGaussianBlur stdDeviation="1.5" result="effect1_foregroundBlur_27_444"/>
</filter>
<filter id="filter16_d_27_444" x="299.683" y="277.768" width="370.238" height="370.343" filterUnits="userSpaceOnUse" color-interpolation-filters="sRGB">
<feFlood flood-opacity="0" result="BackgroundImageFix"/>
<feColorMatrix in="SourceAlpha" type="matrix" values="0 0 0 0 0 0 0 0 0 0 0 0 0 0 0 0 0 0 127 0" result="hardAlpha"/>
<feOffset dy="4"/>
<feGaussianBlur stdDeviation="2"/>
<feComposite in2="hardAlpha" operator="out"/>
<feColorMatrix type="matrix" values="0 0 0 0 0 0 0 0 0 0 0 0 0 0 0 0 0 0 0.25 0"/>
<feBlend mode="normal" in2="BackgroundImageFix" result="effect1_dropShadow_27_444"/>
<feBlend mode="normal" in="SourceGraphic" in2="effect1_dropShadow_27_444" result="shape"/>
</filter>
<filter id="filter17_f_27_444" x="294.136" y="268.219" width="290.776" height="290.866" filterUnits="userSpaceOnUse" color-interpolation-filters="sRGB">
<feFlood flood-opacity="0" result="BackgroundImageFix"/>
<feBlend mode="normal" in="SourceGraphic" in2="BackgroundImageFix" result="shape"/>
<feGaussianBlur stdDeviation="1" result="effect1_foregroundBlur_27_444"/>
</filter>
<filter id="filter18_d_27_444" x="292.136" y="270.219" width="370.238" height="370.343" filterUnits="userSpaceOnUse" color-interpolation-filters="sRGB">
<feFlood flood-opacity="0" result="BackgroundImageFix"/>
<feColorMatrix in="SourceAlpha" type="matrix" values="0 0 0 0 0 0 0 0 0 0 0 0 0 0 0 0 0 0 127 0" result="hardAlpha"/>
<feOffset dy="4"/>
<feGaussianBlur stdDeviation="2"/>
<feComposite in2="hardAlpha" operator="out"/>
<feColorMatrix type="matrix" values="0 0 0 0 0 0 0 0 0 0 0 0 0 0 0 0 0 0 0.25 0"/>
<feBlend mode="normal" in2="BackgroundImageFix" result="effect1_dropShadow_27_444"/>
<feBlend mode="normal" in="SourceGraphic" in2="effect1_dropShadow_27_444" result="shape"/>
</filter>
<filter id="filter19_f_27_444" x="291.362" y="265.444" width="288.776" height="288.866" filterUnits="userSpaceOnUse" color-interpolation-filters="sRGB">
<feFlood flood-opacity="0" result="BackgroundImageFix"/>
<feBlend mode="normal" in="SourceGraphic" in2="BackgroundImageFix" result="shape"/>
<feGaussianBlur stdDeviation="0.5" result="effect1_foregroundBlur_27_444"/>
</filter>
<filter id="filter20_d_27_444" x="288.362" y="266.444" width="370.238" height="370.343" filterUnits="userSpaceOnUse" color-interpolation-filters="sRGB">
<feFlood flood-opacity="0" result="BackgroundImageFix"/>
<feColorMatrix in="SourceAlpha" type="matrix" values="0 0 0 0 0 0 0 0 0 0 0 0 0 0 0 0 0 0 127 0" result="hardAlpha"/>
<feOffset dy="4"/>
<feGaussianBlur stdDeviation="2"/>
<feComposite in2="hardAlpha" operator="out"/>
<feColorMatrix type="matrix" values="0 0 0 0 0 0 0 0 0 0 0 0 0 0 0 0 0 0 0.25 0"/>
<feBlend mode="normal" in2="BackgroundImageFix" result="effect1_dropShadow_27_444"/>
<feBlend mode="normal" in="SourceGraphic" in2="effect1_dropShadow_27_444" result="shape"/>
</filter>
<filter id="filter21_ii_27_444" x="288.089" y="262.17" width="288.276" height="288.366" filterUnits="userSpaceOnUse" color-interpolation-filters="sRGB">
<feFlood flood-opacity="0" result="BackgroundImageFix"/>
<feBlend mode="normal" in="SourceGraphic" in2="BackgroundImageFix" result="shape"/>
<feColorMatrix in="SourceAlpha" type="matrix" values="0 0 0 0 0 0 0 0 0 0 0 0 0 0 0 0 0 0 127 0" result="hardAlpha"/>
<feOffset dx="-0.5" dy="-0.5"/>
<feGaussianBlur stdDeviation="0.5"/>
<feComposite in2="hardAlpha" operator="arithmetic" k2="-1" k3="1"/>
<feColorMatrix type="matrix" values="0 0 0 0 0.669989 0 0 0 0 0.430208 0 0 0 0 0.7375 0 0 0 1 0"/>
<feBlend mode="normal" in2="shape" result="effect1_innerShadow_27_444"/>
<feColorMatrix in="SourceAlpha" type="matrix" values="0 0 0 0 0 0 0 0 0 0 0 0 0 0 0 0 0 0 127 0" result="hardAlpha"/>
<feOffset dx="1" dy="1"/>
<feGaussianBlur stdDeviation="0.5"/>
<feComposite in2="hardAlpha" operator="arithmetic" k2="-1" k3="1"/>
<feColorMatrix type="matrix" values="0 0 0 0 1 0 0 0 0 1 0 0 0 0 1 0 0 0 1 0"/>
<feBlend mode="soft-light" in2="effect1_innerShadow_27_444" result="effect2_innerShadow_27_444"/>
</filter>
<linearGradient id="paint0_linear_27_444" x1="171.614" y1="43.7455" x2="669.92" y2="813.611" gradientUnits="userSpaceOnUse">
<stop stop-color="#FBFBFB"/>
<stop offset="1" stop-color="#E8E8E8"/>
</linearGradient>
<linearGradient id="paint1_linear_27_444" x1="435.75" y1="6" x2="435.75" y2="813.754" gradientUnits="userSpaceOnUse">
<stop stop-color="#6F7AFC"/>
<stop offset="1" stop-color="#4554EE"/>
</linearGradient>
<radialGradient id="paint2_radial_27_444" cx="0" cy="0" r="1" gradientTransform="matrix(620.621 -810.061 809.806 620.816 142.743 896.84)" gradientUnits="userSpaceOnUse">
<stop stop-color="#FFDA55"/>
<stop offset="0.453518" stop-color="#F03D63"/>
<stop offset="1" stop-color="#B72DC0"/>
</radialGradient>
<radialGradient id="paint3_radial_27_444" cx="0" cy="0" r="1" gradientTransform="matrix(364.528 415.417 -415.286 364.643 91.9859 54.4653)" gradientUnits="userSpaceOnUse">
<stop offset="0.248365" stop-color="#3C93E3"/>
<stop offset="1" stop-color="#3C93E3" stop-opacity="0"/>
</radialGradient>
<linearGradient id="paint4_linear_27_444" x1="469.708" y1="262.67" x2="469.708" y2="625.012" gradientUnits="userSpaceOnUse">
<stop stop-color="white"/>
<stop offset="1" stop-color="#F5C4FF"/>
</linearGradient>
</defs>
</svg>
