<svg width="490" height="99" viewBox="0 0 490 99" fill="none" xmlns="http://www.w3.org/2000/svg">
<path d="M20.7709 4.63636C24.8509 4.63636 28.4673 5.44 31.62 7.04728C34.8345 8.59273 37.3073 10.7873 39.0382 13.6309C40.8309 16.4127 41.7273 19.5964 41.7273 23.1818C41.7273 28.2509 39.9964 32.5164 36.5345 35.9782C39.0691 37.6473 41.0164 39.78 42.3764 42.3764C43.7982 44.9109 44.5091 47.7855 44.5091 51C44.5091 54.5855 43.6127 57.8 41.82 60.6436C40.0891 63.4255 37.6164 65.62 34.4018 67.2273C31.2491 68.7727 27.6327 69.5455 23.5527 69.5455H0V4.63636H20.7709ZM23.5527 60.2727C27.2 60.2727 30.0436 59.4382 32.0836 57.7691C34.1855 56.1 35.2364 53.8436 35.2364 51C35.2364 48.1564 34.1855 45.9 32.0836 44.2309C30.0436 42.5618 27.2 41.7273 23.5527 41.7273H9.27273V60.2727H23.5527ZM20.7709 32.4546C24.4182 32.4546 27.2618 31.62 29.3018 29.9509C31.4036 28.2818 32.4545 26.0255 32.4545 23.1818C32.4545 20.3382 31.4036 18.0818 29.3018 16.4127C27.2618 14.7436 24.4182 13.9091 20.7709 13.9091H9.27273V32.4546H20.7709Z" fill="url(#paint0_linear_1_113)"/>
<path d="M97.46 29.6727C99.6236 27.3236 102.251 25.5309 105.342 24.2945C108.433 23.0582 111.74 22.44 115.264 22.44C119.962 22.44 124.104 23.4909 127.689 25.5927C131.336 27.6327 134.149 30.4764 136.127 34.1236C138.105 37.7709 139.095 41.8818 139.095 46.4564C139.095 51.2164 138.044 55.42 135.942 59.0673C133.84 62.6527 130.965 65.4346 127.318 67.4127C123.733 69.3909 119.715 70.38 115.264 70.38C110.751 70.38 106.918 69.36 103.765 67.32C100.613 65.28 98.0473 62.8073 96.0691 59.9018C94.1527 56.9346 92.02 53.1018 89.6709 48.4036C87.7545 44.5091 86.1163 41.48 84.7563 39.3164C83.3963 37.1527 81.7582 35.36 79.8418 33.9382C77.9254 32.4545 75.6382 31.7127 72.98 31.7127C70.6927 31.7127 68.4363 32.2691 66.2109 33.3818C63.9854 34.4327 62.1309 36.0709 60.6473 38.2964C59.1636 40.5218 58.4218 43.2109 58.4218 46.3636C58.4218 50.6291 59.7509 54.1527 62.4091 56.9346C65.1291 59.7164 68.6527 61.1073 72.98 61.1073C75.6382 61.1073 78.0491 60.5818 80.2127 59.5309C82.4382 58.4182 84.1691 56.8727 85.4054 54.8946L90.7836 63.1473C88.62 65.4964 85.9927 67.2891 82.9018 68.5255C79.8109 69.7618 76.5036 70.38 72.98 70.38C68.2818 70.38 64.1091 69.36 60.4618 67.32C56.8763 65.2182 54.0945 62.3436 52.1163 58.6964C50.1382 55.0491 49.1491 50.9382 49.1491 46.3636C49.1491 41.6036 50.2 37.4309 52.3018 33.8455C54.4654 30.1982 57.3709 27.3855 61.0182 25.4073C64.6654 23.4291 68.6527 22.44 72.98 22.44C77.3691 22.44 81.0473 23.4291 84.0145 25.4073C87.0436 27.3855 89.4545 29.7964 91.2473 32.64C93.1018 35.4218 95.1418 39.1 97.3673 43.6745C99.2836 47.6309 100.953 50.7527 102.375 53.04C103.796 55.3273 105.558 57.2436 107.66 58.7891C109.762 60.3346 112.296 61.1073 115.264 61.1073C117.984 61.1073 120.456 60.4891 122.682 59.2527C124.907 57.9546 126.638 56.1927 127.875 53.9673C129.173 51.68 129.822 49.1764 129.822 46.4564C129.822 42.1291 128.462 38.6055 125.742 35.8855C123.022 33.1036 119.529 31.7127 115.264 31.7127C112.605 31.7127 110.164 32.2691 107.938 33.3818C105.775 34.4327 104.075 35.9473 102.838 37.9255L97.46 29.6727Z" fill="url(#paint1_linear_1_113)"/>
<path d="M144.615 0H153.887V41.7273H165.2L174.195 23.1818H184.487L173.175 46.3636L184.487 69.5455H174.195L165.2 51H153.887V69.5455H144.615V0Z" fill="url(#paint2_linear_1_113)"/>
<path d="M217.102 37.2764C217.102 35.2364 216.237 33.8146 214.506 33.0109C212.837 32.1455 210.457 31.7127 207.366 31.7127C203.904 31.7127 201.4 32.3 199.855 33.4745C198.371 34.6491 197.629 35.9164 197.629 37.2764C197.629 38.5745 198.464 39.5327 200.133 40.1509C201.802 40.7691 204.553 41.4491 208.386 42.1909C212.466 42.9327 215.804 43.7055 218.4 44.5091C220.997 45.3127 223.253 46.6109 225.169 48.4036C227.086 50.1346 228.044 52.5145 228.044 55.5436C228.044 58.3255 227.209 60.86 225.54 63.1473C223.933 65.3727 221.553 67.1345 218.4 68.4327C215.309 69.7309 211.631 70.38 207.366 70.38C201.246 70.38 196.362 69.02 192.715 66.3C189.068 63.58 187.244 59.9945 187.244 55.5436H196.517C196.517 57.3364 197.598 58.7273 199.762 59.7164C201.988 60.6436 204.831 61.1073 208.293 61.1073C211.508 61.1073 214.042 60.5509 215.897 59.4382C217.813 58.3255 218.771 57.0273 218.771 55.5436C218.771 54.4927 217.998 53.6891 216.453 53.1327C214.908 52.5764 212.404 51.9891 208.942 51.3709C204.8 50.5673 201.338 49.7327 198.557 48.8673C195.837 48.0018 193.457 46.6418 191.417 44.7873C189.377 42.9327 188.357 40.4291 188.357 37.2764C188.357 34.4327 189.16 31.8982 190.768 29.6727C192.437 27.3855 194.693 25.6236 197.537 24.3873C200.442 23.0891 203.718 22.44 207.366 22.44C213.3 22.44 217.937 23.8 221.275 26.52C224.675 29.1782 226.375 32.7636 226.375 37.2764H217.102Z" fill="url(#paint3_linear_1_113)"/>
<path d="M280.551 76.8709C280.551 80.8273 279.531 84.4127 277.491 87.6273C275.451 90.8418 272.67 93.3764 269.146 95.2309C265.622 97.0855 261.728 98.0127 257.462 98.0127C253.197 98.0127 249.302 97.0855 245.779 95.2309C242.255 93.3764 239.473 90.8418 237.433 87.6273C235.393 84.4127 234.373 80.8273 234.373 76.8709H243.646C243.646 80.2709 244.944 83.0836 247.541 85.3091C250.199 87.5964 253.506 88.74 257.462 88.74C261.419 88.74 264.695 87.5964 267.291 85.3091C269.95 83.0836 271.279 80.2709 271.279 76.8709H280.551ZM233.539 23.1818H242.811V46.4564C242.811 50.9073 244.141 54.4618 246.799 57.12C249.457 59.7782 253.011 61.1073 257.462 61.1073C261.913 61.1073 265.437 59.8091 268.033 57.2127C270.691 54.5545 272.021 50.9691 272.021 46.4564V23.1818H281.293V46.4564C281.293 51.1545 280.273 55.3273 278.233 58.9745C276.255 62.56 273.442 65.3727 269.795 67.4127C266.21 69.3909 262.099 70.38 257.462 70.38C252.826 70.38 248.684 69.36 245.037 67.32C241.451 65.28 238.639 62.4673 236.599 58.8818C234.559 55.2346 233.539 51.0927 233.539 46.4564V23.1818Z" fill="url(#paint4_linear_1_113)"/>
<path d="M337.879 69.5455H328.328L313.77 15.0218L306.166 43.5818H317.2C317.448 44.3855 317.571 45.2818 317.571 46.2709C317.571 48.3727 316.799 50.0109 315.253 51.1855C313.77 52.2982 311.637 52.8545 308.855 52.8545H303.662L299.211 69.5455H289.66L307 4.63636H320.539L337.879 69.5455Z" fill="url(#paint5_linear_1_113)"/>
<path d="M390.23 23.1818V46.3636C390.23 51.0618 389.21 55.2346 387.17 58.8818C385.191 62.4673 382.379 65.28 378.732 67.32C375.146 69.2982 371.035 70.2873 366.399 70.2873C361.762 70.2873 357.621 69.2673 353.973 67.2273C350.388 65.1873 347.575 62.3746 345.535 58.7891C343.495 55.1418 342.475 51 342.475 46.3636V23.1818H351.748V46.3636C351.748 50.8145 353.077 54.3691 355.735 57.0273C358.393 59.6855 361.948 61.0145 366.399 61.0145C370.85 61.0145 374.373 59.7164 376.97 57.12C379.628 54.4618 380.957 50.8764 380.957 46.3636V23.1818H390.23Z" fill="url(#paint6_linear_1_113)"/>
<path d="M443.544 0V46.3636C443.544 51.1236 442.524 55.3273 440.484 58.9745C438.444 62.56 435.601 65.3727 431.953 67.4127C428.306 69.3909 424.195 70.38 419.621 70.38C415.046 70.38 410.935 69.3909 407.288 67.4127C403.702 65.4346 400.89 62.6218 398.85 58.9745C396.81 55.3273 395.79 51.1236 395.79 46.3636C395.79 41.6036 396.81 37.4309 398.85 33.8455C400.89 30.1982 403.702 27.3855 407.288 25.4073C410.935 23.4291 415.046 22.44 419.621 22.44C425.246 22.44 430.13 23.9236 434.272 26.8909V0H443.544ZM405.062 46.3636C405.062 50.9382 406.392 54.5545 409.05 57.2127C411.708 59.8091 415.232 61.1073 419.621 61.1073C424.01 61.1073 427.533 59.8091 430.192 57.2127C432.912 54.5545 434.272 50.9382 434.272 46.3636C434.272 41.7891 432.912 38.2036 430.192 35.6073C427.533 33.0109 424.01 31.7127 419.621 31.7127C415.232 31.7127 411.708 33.0109 409.05 35.6073C406.392 38.2036 405.062 41.7891 405.062 46.3636Z" fill="url(#paint7_linear_1_113)"/>
<path d="M462.133 69.5455H452.86V23.1818H462.133V69.5455ZM452.86 13.9091C452.86 12.6109 453.293 11.5291 454.159 10.6636C455.086 9.73637 456.199 9.27273 457.497 9.27273C458.795 9.27273 459.877 9.73637 460.742 10.6636C461.67 11.5291 462.133 12.6109 462.133 13.9091C462.133 15.2073 461.67 16.32 460.742 17.2473C459.877 18.1127 458.795 18.5455 457.497 18.5455C456.199 18.5455 455.086 18.1127 454.159 17.2473C453.293 16.32 452.86 15.2073 452.86 13.9091Z" fill="url(#paint8_linear_1_113)"/>
<path d="M489.988 69.5455C484.053 69.5455 479.478 67.7218 476.264 64.0745C473.049 60.4273 471.442 55.2655 471.442 48.5891V32.4546H466.806V23.1818H471.442V11.1273H480.715V23.1818H488.133V32.4546H480.715V48.7746C480.715 52.8546 481.426 55.7909 482.848 57.5836C484.331 59.3764 486.711 60.2727 489.988 60.2727V69.5455Z" fill="url(#paint9_linear_1_113)"/>
<defs>
<linearGradient id="paint0_linear_1_113" x1="0" y1="49.0064" x2="489.988" y2="49.0064" gradientUnits="userSpaceOnUse">
<stop stop-color="#E3BE92"/>
<stop offset="0.384615" stop-color="#D8A939"/>
<stop offset="1" stop-color="#D5B380"/>
</linearGradient>
<linearGradient id="paint1_linear_1_113" x1="0" y1="49.0064" x2="489.988" y2="49.0064" gradientUnits="userSpaceOnUse">
<stop stop-color="#E3BE92"/>
<stop offset="0.384615" stop-color="#D8A939"/>
<stop offset="1" stop-color="#D5B380"/>
</linearGradient>
<linearGradient id="paint2_linear_1_113" x1="0" y1="49.0064" x2="489.988" y2="49.0064" gradientUnits="userSpaceOnUse">
<stop stop-color="#E3BE92"/>
<stop offset="0.384615" stop-color="#D8A939"/>
<stop offset="1" stop-color="#D5B380"/>
</linearGradient>
<linearGradient id="paint3_linear_1_113" x1="0" y1="49.0064" x2="489.988" y2="49.0064" gradientUnits="userSpaceOnUse">
<stop stop-color="#E3BE92"/>
<stop offset="0.384615" stop-color="#D8A939"/>
<stop offset="1" stop-color="#D5B380"/>
</linearGradient>
<linearGradient id="paint4_linear_1_113" x1="0" y1="49.0064" x2="489.988" y2="49.0064" gradientUnits="userSpaceOnUse">
<stop stop-color="#E3BE92"/>
<stop offset="0.384615" stop-color="#D8A939"/>
<stop offset="1" stop-color="#D5B380"/>
</linearGradient>
<linearGradient id="paint5_linear_1_113" x1="0" y1="49.0064" x2="489.988" y2="49.0064" gradientUnits="userSpaceOnUse">
<stop stop-color="#E3BE92"/>
<stop offset="0.384615" stop-color="#D8A939"/>
<stop offset="1" stop-color="#D5B380"/>
</linearGradient>
<linearGradient id="paint6_linear_1_113" x1="0" y1="49.0064" x2="489.988" y2="49.0064" gradientUnits="userSpaceOnUse">
<stop stop-color="#E3BE92"/>
<stop offset="0.384615" stop-color="#D8A939"/>
<stop offset="1" stop-color="#D5B380"/>
</linearGradient>
<linearGradient id="paint7_linear_1_113" x1="0" y1="49.0064" x2="489.988" y2="49.0064" gradientUnits="userSpaceOnUse">
<stop stop-color="#E3BE92"/>
<stop offset="0.384615" stop-color="#D8A939"/>
<stop offset="1" stop-color="#D5B380"/>
</linearGradient>
<linearGradient id="paint8_linear_1_113" x1="0" y1="49.0064" x2="489.988" y2="49.0064" gradientUnits="userSpaceOnUse">
<stop stop-color="#E3BE92"/>
<stop offset="0.384615" stop-color="#D8A939"/>
<stop offset="1" stop-color="#D5B380"/>
</linearGradient>
<linearGradient id="paint9_linear_1_113" x1="0" y1="49.0064" x2="489.988" y2="49.0064" gradientUnits="userSpaceOnUse">
<stop stop-color="#E3BE92"/>
<stop offset="0.384615" stop-color="#D8A939"/>
<stop offset="1" stop-color="#D5B380"/>
</linearGradient>
</defs>
</svg>
