<?xml version="1.0" encoding="UTF-8"?>
<svg id="uuid-5f256786-b7ec-4b71-bd8d-a827f06f4ff7" data-name="Layer 2" xmlns="http://www.w3.org/2000/svg" viewBox="0 0 1068.26 557.08">
  <g id="uuid-3414c6ab-16fc-403e-8780-1406cb875d38" data-name="Layer 1">
    <g id="uuid-65738d1b-b5a2-41d0-96e7-a09e78df7860" data-name="0OV8F8.tif">
      <path d="M289.53,505.37c-.09.02-.17.03-.26.06-2.57.67-4.97,4.53-7.25,4.75-2.31.22-14.43-1.65-17.83-2.13-45.25-6.38-91.9-26.14-125.42-57.29-.16-.93,1.44-.24,1.78-.65.47-.55-3.9-11.28-4.49-13.61-2.05-8.22-3.74-21.2-3.16-29.54.09-1.22.56-6.18,1.87-6.61v17.47c0,4.83,4.18,17.84,5.97,22.98l7,14.45c-3.18-11.07,2.59-22.54,2-33.41-.54-9.86-7.07-19.58-8.72-29.24-.89-5.2-.03-11.05-1.75-16.21-14.35,10.84-19.23,25.62-17.47,43.42,1.16,11.7,8.93,20.78,15.96,29.45-1.87.44-2.38-1.04-3.5-1.98-3.54-2.97-25.67-26.05-26.19-28.59-.2-1,.77-2.46.5-3.63-3.54-15.78-4.41-31.15.52-46.87.33-1.04.26-3.02,1.69-2.78-2.34,16.42-4.07,36.99,1.5,52.91.52,1.49.59,3.56,2.49,3.99-1.53-12.27,6.06-23.84,6.98-35.46,1.11-14.02-4.92-28.89,0-43.42-12.81,4.89-22.59,17.51-25.65,30.75-3.53,15.3,1.32,25.01,8.48,37.85.49.88,2.2,2.5.71,3.28-14.37-19.98-26.59-41.95-34.47-65.37-4.25-12.62-5.88-17.02-2.51-30.5,3-12,9.89-24.71,18.01-33.91.58,2.33-3.1,5.51-4.67,8.31-5.66,10.14-9.37,21.66-10.68,33.24-.07.58-1.01,6.3.88,4.87,4.3-8.22,13.5-13.3,17.5-21.44,4.24-8.63,3.98-19.21,7.69-28.25,2.11-5.13,5.83-8.67,7.74-13.71-31.35,2.92-47.01,29.08-39.94,58.89-1.53.24-1.18-1.86-1.47-3-2.78-10.92-7.01-29.16-5.06-39.98,2.71-15.05,17.28-32.95,28.49-42.88-.8,3.78-5.07,6.02-7.39,9.07-5.62,7.38-13.42,21.6-15.31,30.62-.19.89-.83,2.93.25,3.24,7.88-7.84,17.95-12.26,23.63-22.29,6.15-10.87,7.45-24.87,18.8-33.12-21.17-3.5-39.95,8.3-46.22,28.66l-3.68,21.76c.38-10.78-.53-21.71-.05-32.48.57-12.94,4.8-46.92,9.79-58.1,1-2.25,10.32-11.17,12.74-13.22,7.24-6.11,20.47-14.62,29.41-17.52.98-.32,3.21-1.37,3,.51-15.66,5.21-27.82,16.83-37.92,29.47,9.28-1.09,18.39-2.46,26.28-7.66,11.39-7.52,18.01-22.23,32.61-25.8,1.54-2.02-13.88-5.81-15.48-5.97-15.52-1.55-27.36,1.21-37.41,13.49l-10,17.44c1.95-8.3,4.95-17.19,8.51-24.92,5.05-10.96,7.84-13.53,18.15-19.79,9.04-5.48,22.55-11.33,32.99-12.95,1.07-.17,3.47-1.06,3.23.74-10.18,1.47-19.31,6.46-28.27,11.17l-14.65,10.81h17.47c2.17,0,8.46-2.16,10.83-3.14,11.51-4.75,20.96-17.27,34.59-18.83,1.35-1.46-3.69-4.16-4.69-4.79-16.56-10.4-36.35-8.58-50.12,5.4l-12.07,17.36c.43-4.4,3.58-8.75,5.81-12.65,9.39-16.41,35.97-53.92,52.82-60.99,12.18-5.11,28.06-7.87,41.19-8.21l-14.97,3.49-22.97,7.49c-.25,2.66-.04,1.62,1.5,1.97,3.59.81,7.95,2.3,11.24,2.76,21.66,2.99,34.64-10.34,55.15-12.73-5.86-7.4-17.76-12.67-26.9-14.52-15.44-3.13-25.08,1.88-38.99,7.53,2.63-3.25,6.25-5.24,8.96-8.5,10.88-13.05,10.82-30.55,14-46.4l-26.27,17.15c-6.54,4.79-13.57,10.67-16.44,18.51-3.64,9.95-.64,18.02-1.21,28.23,10.1-10.39,16.44-23.89,25.1-35.29.7-.93,2.01-3.14,1.83-.17-7.55,9.38-12.46,26.31-19.93,34.98-2.61,3.03-7.93,6.09-11.02,8.95-4.3,3.99-8.18,8.48-12.47,12.49l7.99-15.97c3.68-14.97.22-29.99-1.51-44.93-10.25,13.51-23.44,25.28-30.41,40.96-4.55,11.95,1.41,23.74,4.96,34.93,5.92-15.79,12.41-31.51,16.48-47.93l.74,3.23c-5.17,15.11-7.25,34.62-13.99,48.91-4.41,9.34-13.8,18.87-18.21,28.71l7.25-19.7c2.34-15.03-4.34-32.2-10.89-45.54-.94-1.91-1.78-4.71-3.84-5.63-3.91,17.59-17.93,34.43-15.87,53.31.96,8.78,7.16,18.05,12.86,24.56,2.68-19.49,4.4-39.16,4.01-58.9l2.03,19.42c-.92,13.27.86,28.99-.34,41.84-.29,3.12-6.78,16.02-8.43,20.35-2.38,6.27-4.2,12.83-6.26,19.21-1.85.23-.79-2.03-.54-3.04,1.54-6.34,4.18-12.57,4.58-19.38,1.13-18.89-11.96-36.1-24.98-48.46-.82,16.55-7.85,33.8-6.01,50.42,1.29,11.65,10.91,19.16,18.97,26.45-1.32-18.63-2.04-37.57-7.95-55.44-.02-2.97,1.25-.92,1.71.3,1.69,4.49,3.52,11.59,4.6,16.37,2.45,10.78,6.65,31.78,6.44,42.27-.23,11.88-7.52,26.84-6.79,39.44-1.76-.3-1.11-5.19-1.04-6.53.22-4.15,1.21-7.57,1.09-11.97-.64-22.47-15.43-36.88-32.98-48.38.01,3.81-.07,7.65,0,11.47.17,9.85-.16,20.73,1.25,30.7,2.07,14.6,12.19,23.01,23.69,30.71-1.58-13.51-5.36-26.71-9.96-39.45-1.55-4.3-4.1-8.46-5.55-12.43-.34-.94-1.31-3.25.53-3.02,8.03,17.14,15.05,34.59,19.23,53.16.28,1.23,1.75,3.06,1.75,3.25v50.42c-1.76.22-.95-2.25-1-3.48-.64-14.22-1.34-28.42-9.16-40.77-7.03-11.1-20.73-19.03-31.76-25.64,3.31,26.99,4.85,59.48,34.93,69.88-5.77-18.57-13.43-36.67-24.94-52.43-.15-3.04,1.08-.7,1.82.19,13.7,16.46,20.99,36.52,30.67,55.19.31,11.39,4.43,23.55,5.43,34.52.24,2.67-.38,2.65-1.11.11-1.63-5.65-2.78-11.29-5.34-16.64-8.62-18.02-28.35-27.07-46.45-32.91,6.08,13.88,10.14,31.26,18.55,43.84,7.8,11.66,18.49,14.98,30.87,20.05.88-1.87-1.43-4.97-2.33-6.65-7.26-13.64-18.18-26.08-28.12-37.77,1-1.62,2.21.33,3,1,4.44,3.72,10.65,10.89,14.48,15.47,6.3,7.51,11.95,15.62,17.01,24.03,4.34.17,1.26.57,2.2,3.64l12.24,30.74c-.15,3.08-1.05.96-1.77-.24-2.52-4.21-3.92-7.78-7.21-11.76-12.82-15.52-31.22-22.28-50.93-23.94,11.6,17.65,16.54,43.75,39.49,50.37,6.22,1.79,13.93,2.43,20.4,2.56-7.09-7.22-13.46-15.14-20.95-21.98-6.09-5.57-14.09-10.49-20-15.95-1.29-1.19-1.66-1.73.5-1.5,8.79,6.9,18.38,12.78,26.95,19.98,18.8,15.81,22.62,24.95,35.64,44.23,2.03,3,5.42,5.66,6.82,9.15-.36,1.26-2.19-1.1-2.52-1.48-10.59-12.21-17.26-21.98-33.9-27-2.41-.73-11.12-2.97-13.01-2.97h-20.47c12.83,14.22,26.29,40.65,47.42,42.94,4.38.48,14.23.44,18.29-.71.93-.26,3.06-.04,2.17-1.78-.59-1.17-12.84-9.46-15.05-10.91-7.67-5.01-16.47-10-24.87-13.57-.23-1.84,2.08-.87,3.02-.53,4.73,1.71,12.81,5.93,17.62,8.35,7.59,3.82,18.67,9.57,25.2,14.74,9.79,7.74,18.44,19.61,28.03,27.88-1.06,1.68-2.19-.41-2.98-1.02-16.79-12.88-27.48-17.27-49.42-15.45-2.56.21-16.06,2.6-17.51,3.46-1.24.74-1.07,1.22,0,2.03,22.18,16.62,44.73,44.4,73.9,22.46-18.58-7.19-37.13-14.58-56.9-17.99-.18-1.87,3.24-.96,4.25-.75,17.13,3.53,41.58,9.27,57.16,16.72,10.82,5.18,19.94,13.72,30.43,19.49l-22.72-7.24c-12.89-1.81-24.55,1.59-36.45,5.97l-12.71,6.74c25.56,8.69,43.86,29.88,72.18,14.79l11.67-7.78-59.42-6-1.48-1.99c19.87.61,38.84,1.39,58.58,3.9,9.77,1.25,15.63,5.28,25.04,8.82,4.58,1.72,9.4,3.37,14.22,4.26.24,1.8-2.17.91-3.24.74-4.8-.75-8.96-2.5-14.19-2.79-20.4-1.15-39.29,10.48-53.46,24,22.51,1.97,46.45,18.26,67.22,1.83l15.64-15.79c-14.54,3.52-29.53,4.04-44.29,6.12-4.33.61-8.99,2.3-13.24,2.74-1.1.12-3.6.9-3.36-.87l61.4-11.82c13.27,3.04,26.84,5.01,40.43,5.83l-3.48.99c-6.78-.27-14.11-.98-20.87.1-20.52,3.29-33.58,22.32-43.53,38.82,25.25-6.61,49.54-1.54,67.87-23.47,1.08-1.29,7.64-10.17,8-10.97.55-1.25-.11-1.74-1.42-1.43-8.42,1.99-24.02,8.87-32.19,12.75-7.96,3.78-14.69,8.72-22.27,12.67-1.5.78-4.42,3-6,1.98,17.62-11.91,35.06-21.41,55.14-28.53.77-.27.42-1.77,2.21-1.99,1.75-.22,8.39-.3,9.83.05,1.1.27,1.85,4.51,6.69,5.75v-18.52Z"/>
    </g>
  </g>
  <g id="uuid-96a21eff-e97c-4645-9692-80eae125de6f" data-name="Layer 2">
    <g id="uuid-14543896-1f42-4ff5-9db1-07b1d2d613ee" data-name="0OV8F8.tif">
      <path d="M778.73,505.37c.09.02.17.03.26.06,2.57.67,4.97,4.53,7.25,4.75,2.31.22,14.43-1.65,17.83-2.13,45.25-6.38,91.9-26.14,125.42-57.29.16-.93-1.44-.24-1.78-.65-.47-.55,3.9-11.28,4.49-13.61,2.05-8.22,3.74-21.2,3.16-29.54-.09-1.22-.56-6.18-1.87-6.61v17.47c0,4.83-4.18,17.84-5.97,22.98l-7,14.45c3.18-11.07-2.59-22.54-2-33.41.54-9.86,7.07-19.58,8.72-29.24.89-5.2.03-11.05,1.75-16.21,14.35,10.84,19.23,25.62,17.47,43.42-1.16,11.7-8.93,20.78-15.96,29.45,1.87.44,2.38-1.04,3.5-1.98,3.54-2.97,25.67-26.05,26.19-28.59.2-1-.77-2.46-.5-3.63,3.54-15.78,4.41-31.15-.52-46.87-.33-1.04-.26-3.02-1.69-2.78,2.34,16.42,4.07,36.99-1.5,52.91-.52,1.49-.59,3.56-2.49,3.99,1.53-12.27-6.06-23.84-6.98-35.46-1.11-14.02,4.92-28.89,0-43.42,12.81,4.89,22.59,17.51,25.65,30.75,3.53,15.3-1.32,25.01-8.48,37.85-.49.88-2.2,2.5-.71,3.28,14.37-19.98,26.59-41.95,34.47-65.37,4.25-12.62,5.88-17.02,2.51-30.5-3-12-9.89-24.71-18.01-33.91-.58,2.33,3.1,5.51,4.67,8.31,5.66,10.14,9.37,21.66,10.68,33.24.07.58,1.01,6.3-.88,4.87-4.3-8.22-13.5-13.3-17.5-21.44-4.24-8.63-3.98-19.21-7.69-28.25-2.11-5.13-5.83-8.67-7.74-13.71,31.35,2.92,47.01,29.08,39.94,58.89,1.53.24,1.18-1.86,1.47-3,2.78-10.92,7.01-29.16,5.06-39.98-2.71-15.05-17.28-32.95-28.49-42.88.8,3.78,5.07,6.02,7.39,9.07,5.62,7.38,13.42,21.6,15.31,30.62.19.89.83,2.93-.25,3.24-7.88-7.84-17.95-12.26-23.63-22.29-6.15-10.87-7.45-24.87-18.8-33.12,21.17-3.5,39.95,8.3,46.22,28.66l3.68,21.76c-.38-10.78.53-21.71.05-32.48-.57-12.94-4.8-46.92-9.79-58.1-1-2.25-10.32-11.17-12.74-13.22-7.24-6.11-20.47-14.62-29.41-17.52-.98-.32-3.21-1.37-3,.51,15.66,5.21,27.82,16.83,37.92,29.47-9.28-1.09-18.39-2.46-26.28-7.66-11.39-7.52-18.01-22.23-32.61-25.8-1.54-2.02,13.88-5.81,15.48-5.97,15.52-1.55,27.36,1.21,37.41,13.49l10,17.44c-1.95-8.3-4.95-17.19-8.51-24.92-5.05-10.96-7.84-13.53-18.15-19.79-9.04-5.48-22.55-11.33-32.99-12.95-1.07-.17-3.47-1.06-3.23.74,10.18,1.47,19.31,6.46,28.27,11.17l14.65,10.81h-17.47c-2.17,0-8.46-2.16-10.83-3.14-11.51-4.75-20.96-17.27-34.59-18.83-1.35-1.46,3.69-4.16,4.69-4.79,16.56-10.4,36.35-8.58,50.12,5.4l12.07,17.36c-.43-4.4-3.58-8.75-5.81-12.65-9.39-16.41-35.97-53.92-52.82-60.99-12.18-5.11-28.06-7.87-41.19-8.21l14.97,3.49,22.97,7.49c.25,2.66.04,1.62-1.5,1.97-3.59.81-7.95,2.3-11.24,2.76-21.66,2.99-34.64-10.34-55.15-12.73,5.86-7.4,17.76-12.67,26.9-14.52,15.44-3.13,25.08,1.88,38.99,7.53-2.63-3.25-6.25-5.24-8.96-8.5C898.66,33.35,898.72,15.84,895.55,0l26.27,17.15c6.54,4.79,13.57,10.67,16.44,18.51,3.64,9.95.64,18.02,1.21,28.23-10.1-10.39-16.44-23.89-25.1-35.29-.7-.93-2.01-3.14-1.83-.17,7.55,9.38,12.46,26.31,19.93,34.98,2.61,3.03,7.93,6.09,11.02,8.95,4.3,3.99,8.18,8.48,12.47,12.49l-7.99-15.97c-3.68-14.97-.22-29.99,1.51-44.93,10.25,13.51,23.44,25.28,30.41,40.96,4.55,11.95-1.41,23.74-4.96,34.93-5.92-15.79-12.41-31.51-16.48-47.93l-.74,3.23c5.17,15.11,7.25,34.62,13.99,48.91,4.41,9.34,13.8,18.87,18.21,28.71l-7.25-19.7c-2.34-15.03,4.34-32.2,10.89-45.54.94-1.91,1.78-4.71,3.84-5.63,3.91,17.59,17.93,34.43,15.87,53.31-.96,8.78-7.16,18.05-12.86,24.56-2.68-19.49-4.4-39.16-4.01-58.9l-2.03,19.42c.92,13.27-.86,28.99.34,41.84.29,3.12,6.78,16.02,8.43,20.35,2.38,6.27,4.2,12.83,6.26,19.21,1.85.23.79-2.03.54-3.04-1.54-6.34-4.18-12.57-4.58-19.38-1.13-18.89,11.96-36.1,24.98-48.46.82,16.55,7.85,33.8,6.01,50.42-1.29,11.65-10.91,19.16-18.97,26.45,1.32-18.63,2.04-37.57,7.95-55.44.02-2.97-1.25-.92-1.71.3-1.69,4.49-3.52,11.59-4.6,16.37-2.45,10.78-6.65,31.78-6.44,42.27.23,11.88,7.52,26.84,6.79,39.44,1.76-.3,1.11-5.19,1.04-6.53-.22-4.15-1.21-7.57-1.09-11.97.64-22.47,15.43-36.88,32.98-48.38-.01,3.81.07,7.65,0,11.47-.17,9.85.16,20.73-1.25,30.7-2.07,14.6-12.19,23.01-23.69,30.71,1.58-13.51,5.36-26.71,9.96-39.45,1.55-4.3,4.1-8.46,5.55-12.43.34-.94,1.31-3.25-.53-3.02-8.03,17.14-15.05,34.59-19.23,53.16-.28,1.23-1.75,3.06-1.75,3.25v50.42c1.76.22.95-2.25,1-3.48.64-14.22,1.34-28.42,9.16-40.77,7.03-11.1,20.73-19.03,31.76-25.64-3.31,26.99-4.85,59.48-34.93,69.88,5.77-18.57,13.43-36.67,24.94-52.43.15-3.04-1.08-.7-1.82.19-13.7,16.46-20.99,36.52-30.67,55.19-.31,11.39-4.43,23.55-5.43,34.52-.24,2.67.38,2.65,1.11.11,1.63-5.65,2.78-11.29,5.34-16.64,8.62-18.02,28.35-27.07,46.45-32.91-6.08,13.88-10.14,31.26-18.55,43.84-7.8,11.66-18.49,14.98-30.87,20.05-.88-1.87,1.43-4.97,2.33-6.65,7.26-13.64,18.18-26.08,28.12-37.77-1-1.62-2.21.33-3,1-4.44,3.72-10.65,10.89-14.48,15.47-6.3,7.51-11.95,15.62-17.01,24.03-4.34.17-1.26.57-2.2,3.64l-12.24,30.74c.15,3.08,1.05.96,1.77-.24,2.52-4.21,3.92-7.78,7.21-11.76,12.82-15.52,31.22-22.28,50.93-23.94-11.6,17.65-16.54,43.75-39.49,50.37-6.22,1.79-13.93,2.43-20.4,2.56,7.09-7.22,13.46-15.14,20.95-21.98,6.09-5.57,14.09-10.49,20-15.95,1.29-1.19,1.66-1.73-.5-1.5-8.79,6.9-18.38,12.78-26.95,19.98-18.8,15.81-22.62,24.95-35.64,44.23-2.03,3-5.42,5.66-6.82,9.15.36,1.26,2.19-1.1,2.52-1.48,10.59-12.21,17.26-21.98,33.9-27,2.41-.73,11.12-2.97,13.01-2.97h20.47c-12.83,14.22-26.29,40.65-47.42,42.94-4.38.48-14.23.44-18.29-.71-.93-.26-3.06-.04-2.17-1.78.59-1.17,12.84-9.46,15.05-10.91,7.67-5.01,16.47-10,24.87-13.57.23-1.84-2.08-.87-3.02-.53-4.73,1.71-12.81,5.93-17.62,8.35-7.59,3.82-18.67,9.57-25.2,14.74-9.79,7.74-18.44,19.61-28.03,27.88,1.06,1.68,2.19-.41,2.98-1.02,16.79-12.88,27.48-17.27,49.42-15.45,2.56.21,16.06,2.6,17.51,3.46,1.24.74,1.07,1.22,0,2.03-22.18,16.62-44.73,44.4-73.9,22.46,18.58-7.19,37.13-14.58,56.9-17.99.18-1.87-3.24-.96-4.25-.75-17.13,3.53-41.58,9.27-57.16,16.72-10.82,5.18-19.94,13.72-30.43,19.49l22.72-7.24c12.89-1.81,24.55,1.59,36.45,5.97l12.71,6.74c-25.56,8.69-43.86,29.88-72.18,14.79l-11.67-7.78,59.42-6,1.48-1.99c-19.87.61-38.84,1.39-58.58,3.9-9.77,1.25-15.63,5.28-25.04,8.82-4.58,1.72-9.4,3.37-14.22,4.26-.24,1.8,2.17.91,3.24.74,4.8-.75,8.96-2.5,14.19-2.79,20.4-1.15,39.29,10.48,53.46,24-22.51,1.97-46.45,18.26-67.22,1.83l-15.64-15.79c14.54,3.52,29.53,4.04,44.29,6.12,4.33.61,8.99,2.3,13.24,2.74,1.1.12,3.6.9,3.36-.87l-61.4-11.82c-13.27,3.04-26.84,5.01-40.43,5.83l3.48.99c6.78-.27,14.11-.98,20.87.1,20.52,3.29,33.58,22.32,43.53,38.82-25.25-6.61-49.54-1.54-67.87-23.47-1.08-1.29-7.64-10.17-8-10.97-.55-1.25.11-1.74,1.42-1.43,8.42,1.99,24.02,8.87,32.19,12.75,7.96,3.78,14.69,8.72,22.27,12.67,1.5.78,4.42,3,6,1.98-17.62-11.91-35.06-21.41-55.14-28.53-.77-.27-.42-1.77-2.21-1.99-1.75-.22-8.39-.3-9.83.05-1.1.27-1.85,4.51-6.69,5.75v-18.52Z"/>
    </g>
    <g>
      <path d="M409.66,240.85c-8.5,0-17.07-1.51-25.71-4.52-8.65-3.01-16.26-7.37-22.82-13.09-6.57-5.71-10.93-12.58-13.09-20.62l41.47-8.34c1.23,3.24,3.48,5.64,6.72,7.18,3.24,1.54,6.72,2.32,10.42,2.32,5.56,0,10.08-1.66,13.55-4.98,3.48-3.32,5.21-7.84,5.21-13.55,0-4.94-1.7-9.27-5.1-12.97-3.4-3.71-8.03-5.56-13.9-5.56-3.86,0-7.1.93-9.73,2.78-2.63,1.85-4.56,3.94-5.79,6.25l-38.45-8.34,11.58-91.5h96.37v38.92h-60.46l-4.63,27.33c4.01-2.16,8.53-3.9,13.55-5.21,5.02-1.31,10.62-1.89,16.79-1.74,7.88.16,15.21,2.28,22.01,6.37,6.79,4.09,12.24,9.65,16.33,16.68,4.09,7.03,6.14,15.17,6.14,24.44,0,11.43-2.59,21.54-7.76,30.35-5.18,8.8-12.28,15.64-21.31,20.5-9.03,4.87-19.5,7.3-31.39,7.3Z"/>
      <path d="M480.54,257.53l63.94-192.5h38.46l-63.47,192.5h-38.92Z"/>
      <path d="M654.97,240.85c-8.5,0-17.07-1.51-25.71-4.52-8.65-3.01-16.25-7.37-22.82-13.09-6.57-5.71-10.93-12.58-13.09-20.62l41.47-8.34c1.23,3.24,3.47,5.64,6.72,7.18,3.24,1.54,6.72,2.32,10.42,2.32,5.56,0,10.08-1.66,13.55-4.98,3.47-3.32,5.21-7.84,5.21-13.55,0-4.94-1.7-9.27-5.1-12.97-3.4-3.71-8.03-5.56-13.9-5.56-3.86,0-7.11.93-9.73,2.78-2.63,1.85-4.56,3.94-5.79,6.25l-38.45-8.34,11.58-91.5h96.37v38.92h-60.46l-4.63,27.33c4.01-2.16,8.53-3.9,13.55-5.21,5.02-1.31,10.62-1.89,16.79-1.74,7.88.16,15.21,2.28,22.01,6.37,6.79,4.09,12.24,9.65,16.33,16.68,4.09,7.03,6.14,15.17,6.14,24.44,0,11.43-2.59,21.54-7.76,30.35-5.18,8.8-12.28,15.64-21.31,20.5-9.04,4.87-19.5,7.3-31.39,7.3Z"/>
    </g>
    <g>
      <path d="M220.65,371.71c-4.47,0-8.42-.94-11.85-2.83-3.43-1.89-6.12-4.49-8.07-7.8-1.95-3.31-2.92-7.1-2.92-11.36s.97-8.11,2.92-11.43c1.95-3.31,4.63-5.91,8.04-7.8,3.41-1.89,7.33-2.83,11.76-2.83s8.41.94,11.82,2.83c3.41,1.89,6.09,4.49,8.04,7.8,1.95,3.31,2.92,7.12,2.92,11.43s-.97,8.05-2.89,11.36c-1.93,3.31-4.6,5.91-8.01,7.8-3.41,1.89-7.33,2.83-11.76,2.83ZM220.65,361.35c2.19,0,4.12-.5,5.79-1.49,1.67-1,2.96-2.37,3.9-4.11.93-1.75,1.4-3.76,1.4-6.03s-.48-4.3-1.43-6.06c-.96-1.77-2.28-3.15-3.96-4.14-1.69-.99-3.63-1.49-5.82-1.49s-4.07.5-5.76,1.49c-1.69,1-3.01,2.38-3.96,4.14-.96,1.77-1.43,3.79-1.43,6.06s.49,4.29,1.46,6.03c.98,1.75,2.31,3.12,3.99,4.11,1.69,1,3.63,1.49,5.82,1.49Z"/>
      <path d="M259.83,370.98l-16.39-42.65h12.19l10.3,29,10.18-29h12.19l-16.27,42.65h-12.19Z"/>
      <path d="M292.37,370.98v-42.65h28.58v10.36h-17.31v5.91h14.01v10.05h-14.01v5.97h17.73v10.36h-29Z"/>
      <path d="M328.08,370.98v-42.65h17.67c3.21,0,6.05.62,8.53,1.86,2.48,1.24,4.42,2.95,5.82,5.12,1.4,2.17,2.1,4.68,2.1,7.53s-.69,5.3-2.07,7.5c-1.38,2.19-3.25,3.9-5.61,5.12l9.38,15.54h-12.92l-7.68-13.53h-3.96v13.53h-11.27ZM339.35,347.1h5.79c1.02,0,1.91-.18,2.68-.55.77-.37,1.38-.87,1.83-1.52.45-.65.67-1.38.67-2.19,0-1.22-.48-2.22-1.43-3.02-.96-.79-2.2-1.19-3.75-1.19h-5.79v8.47Z"/>
      <path d="M365.85,370.98l16.33-42.65h12.12l16.33,42.65h-11.94l-2.5-6.82h-15.9l-2.5,6.82h-11.94ZM383.95,354.22h8.59l-4.26-11.82-4.33,11.82Z"/>
      <path d="M414.72,370.98v-42.65h11.27v32.29h17.55v10.36h-28.82Z"/>
      <path d="M448.42,370.98v-42.65h11.27v32.29h17.55v10.36h-28.82Z"/>
      <path d="M515.81,371.71c-4.27,0-8.03-.94-11.3-2.83-3.27-1.89-5.84-4.49-7.71-7.8-1.87-3.31-2.8-7.12-2.8-11.43s.93-8.11,2.8-11.42c1.87-3.31,4.44-5.91,7.71-7.8,3.27-1.89,7.04-2.83,11.3-2.83,3.29,0,6.25.57,8.9,1.71,2.64,1.14,4.91,2.72,6.82,4.75,1.91,2.03,3.37,4.39,4.39,7.07l-10.72,3.41c-.57-1.34-1.3-2.51-2.19-3.5-.89-1-1.94-1.76-3.14-2.29-1.2-.53-2.55-.79-4.05-.79-1.99,0-3.76.5-5.3,1.49-1.54,1-2.75,2.37-3.62,4.11-.87,1.75-1.31,3.78-1.31,6.09s.45,4.3,1.34,6.06c.89,1.77,2.12,3.15,3.69,4.14,1.56,1,3.36,1.49,5.39,1.49,1.58,0,2.96-.27,4.11-.82,1.16-.55,2.15-1.32,2.99-2.32.83-1,1.55-2.16,2.16-3.5l10.72,3.41c-.97,2.68-2.42,5.05-4.33,7.1-1.91,2.05-4.21,3.65-6.89,4.78s-5.67,1.71-8.96,1.71Z"/>
      <path d="M561.27,371.71c-4.47,0-8.42-.94-11.85-2.83-3.43-1.89-6.12-4.49-8.07-7.8s-2.92-7.1-2.92-11.36.97-8.11,2.92-11.43c1.95-3.31,4.63-5.91,8.04-7.8,3.41-1.89,7.33-2.83,11.76-2.83s8.41.94,11.82,2.83c3.41,1.89,6.09,4.49,8.04,7.8,1.95,3.31,2.92,7.12,2.92,11.43s-.97,8.05-2.89,11.36c-1.93,3.31-4.6,5.91-8.01,7.8-3.41,1.89-7.33,2.83-11.76,2.83ZM561.27,361.35c2.19,0,4.12-.5,5.79-1.49,1.67-1,2.96-2.37,3.9-4.11.93-1.75,1.4-3.76,1.4-6.03s-.48-4.3-1.43-6.06c-.96-1.77-2.28-3.15-3.96-4.14-1.69-.99-3.63-1.49-5.82-1.49s-4.07.5-5.76,1.49c-1.69,1-3.01,2.38-3.96,4.14-.95,1.77-1.43,3.79-1.43,6.06s.49,4.29,1.46,6.03c.97,1.75,2.3,3.12,3.99,4.11,1.68,1,3.62,1.49,5.82,1.49Z"/>
      <path d="M589.11,370.98v-42.65h11.88l16.63,23.46v-23.46h11.27v42.65h-11.27l-17.24-24.31v24.31h-11.27Z"/>
      <path d="M651.14,371.71c-1.99,0-3.94-.27-5.85-.82-1.91-.55-3.65-1.31-5.21-2.28-1.56-.98-2.85-2.08-3.87-3.32-1.02-1.24-1.62-2.55-1.83-3.93l11.21-3.11c.37,1.02,1,1.88,1.89,2.59.89.71,2.05,1.11,3.47,1.19,1.14.04,2.14-.26,3.02-.91.87-.65,1.31-1.5,1.31-2.56,0-.69-.25-1.35-.76-1.98-.51-.63-1.31-1.09-2.41-1.37l-6.4-1.64c-2.19-.57-4.07-1.44-5.64-2.62-1.56-1.18-2.76-2.62-3.59-4.33-.83-1.71-1.25-3.62-1.25-5.73,0-4.18,1.39-7.44,4.17-9.78,2.78-2.34,6.69-3.5,11.73-3.5,2.68,0,5.05.35,7.1,1.04,2.05.69,3.82,1.78,5.3,3.26,1.48,1.48,2.71,3.42,3.69,5.82l-11.15,3.23c-.2-.81-.72-1.62-1.55-2.44-.83-.81-1.96-1.22-3.38-1.22s-2.45.3-3.2.91c-.75.61-1.13,1.5-1.13,2.68,0,.73.3,1.37.91,1.92.61.55,1.48.96,2.62,1.25l6.46,1.65c3.25.81,5.79,2.41,7.62,4.78,1.83,2.38,2.74,5.09,2.74,8.13,0,2.8-.64,5.18-1.92,7.13-1.28,1.95-3.12,3.43-5.51,4.45-2.4,1.01-5.26,1.52-8.59,1.52Z"/>
      <path d="M690.32,371.71c-3.78,0-7.03-.69-9.75-2.07-2.72-1.38-4.8-3.36-6.25-5.94-1.44-2.58-2.16-5.66-2.16-9.23v-26.14h11.27v26.14c0,1.42.28,2.64.85,3.66.57,1.02,1.37,1.79,2.41,2.32,1.04.53,2.29.79,3.75.79s2.72-.26,3.78-.79c1.06-.53,1.86-1.3,2.41-2.32.55-1.01.82-2.23.82-3.66v-26.14h11.27v26.14c0,3.58-.73,6.65-2.19,9.23-1.46,2.58-3.56,4.56-6.31,5.94-2.74,1.38-6.04,2.07-9.9,2.07Z"/>
      <path d="M715.43,370.98v-42.65h12.49l10.3,15.23,10.3-15.23h12.49v42.65h-11.27v-25.23l-11.46,16.7-11.58-16.7v25.23h-11.27Z"/>
      <path d="M768.32,370.98v-42.65h28.58v10.36h-17.31v5.91h14.01v10.05h-14.01v5.97h17.73v10.36h-29Z"/>
      <path d="M804.03,370.98v-42.65h17.67c3.21,0,6.05.62,8.53,1.86,2.48,1.24,4.42,2.95,5.82,5.12,1.4,2.17,2.1,4.68,2.1,7.53s-.69,5.3-2.07,7.5c-1.38,2.19-3.25,3.9-5.61,5.12l9.38,15.54h-12.92l-7.68-13.53h-3.96v13.53h-11.27ZM815.3,347.1h5.79c1.01,0,1.91-.18,2.68-.55.77-.37,1.38-.87,1.83-1.52.45-.65.67-1.38.67-2.19,0-1.22-.48-2.22-1.43-3.02-.96-.79-2.2-1.19-3.75-1.19h-5.79v8.47Z"/>
      <path d="M859.35,371.71c-1.99,0-3.94-.27-5.85-.82-1.91-.55-3.65-1.31-5.21-2.28-1.56-.98-2.85-2.08-3.87-3.32-1.02-1.24-1.62-2.55-1.83-3.93l11.21-3.11c.37,1.02,1,1.88,1.89,2.59.89.71,2.05,1.11,3.47,1.19,1.14.04,2.14-.26,3.02-.91.87-.65,1.31-1.5,1.31-2.56,0-.69-.25-1.35-.76-1.98-.51-.63-1.31-1.09-2.41-1.37l-6.4-1.64c-2.19-.57-4.07-1.44-5.64-2.62-1.56-1.18-2.76-2.62-3.59-4.33-.83-1.71-1.25-3.62-1.25-5.73,0-4.18,1.39-7.44,4.17-9.78,2.78-2.34,6.69-3.5,11.73-3.5,2.68,0,5.05.35,7.1,1.04,2.05.69,3.82,1.78,5.3,3.26,1.48,1.48,2.71,3.42,3.69,5.82l-11.15,3.23c-.2-.81-.72-1.62-1.55-2.44-.83-.81-1.96-1.22-3.38-1.22s-2.45.3-3.2.91c-.75.61-1.13,1.5-1.13,2.68,0,.73.3,1.37.91,1.92.61.55,1.48.96,2.62,1.25l6.46,1.65c3.25.81,5.79,2.41,7.62,4.78,1.83,2.38,2.74,5.09,2.74,8.13,0,2.8-.64,5.18-1.92,7.13-1.28,1.95-3.12,3.43-5.51,4.45-2.4,1.01-5.26,1.52-8.59,1.52Z"/>
      <path d="M421.7,444.1v-42.65h17.67c3.21,0,6.05.62,8.53,1.86,2.48,1.24,4.42,2.95,5.82,5.12,1.4,2.17,2.1,4.68,2.1,7.53s-.69,5.3-2.07,7.5c-1.38,2.19-3.25,3.9-5.61,5.12l9.38,15.54h-12.92l-7.68-13.53h-3.96v13.53h-11.27ZM432.97,420.22h5.79c1.01,0,1.91-.18,2.68-.55.77-.37,1.38-.87,1.83-1.52.45-.65.67-1.38.67-2.19,0-1.22-.48-2.22-1.43-3.02-.96-.79-2.2-1.19-3.75-1.19h-5.79v8.47Z"/>
      <path d="M462.1,444.1v-42.65h28.58v10.36h-17.31v5.91h14.01v10.05h-14.01v5.97h17.73v10.36h-29Z"/>
      <path d="M510.97,444.1l-16.39-42.65h12.19l10.3,29,10.18-29h12.19l-16.27,42.65h-12.19Z"/>
      <path d="M543.51,444.1v-42.65h11.27v42.65h-11.27Z"/>
      <path d="M562.09,444.1v-42.65h28.58v10.36h-17.31v5.91h14.01v10.05h-14.01v5.97h17.73v10.36h-29Z"/>
      <path d="M606.81,444.1l-12.25-42.65h11.52l6.76,25.29,6.4-25.29h11.21l6.58,24.62,6.58-24.62h11.52l-12.25,42.65h-11.7l-6.34-25.23-6.34,25.23h-11.7Z"/>
    </g>
    <g>
      <path d="M456.54,540.14c-1.98,0-3.75-.44-5.3-1.31-1.55-.87-2.76-2.08-3.64-3.62-.87-1.54-1.31-3.3-1.31-5.28v-17.79h2.5v17.79c0,1.54.33,2.91,1,4.11.66,1.2,1.59,2.14,2.78,2.82,1.19.68,2.53,1.02,4.05,1.02s2.9-.34,4.09-1.02,2.11-1.62,2.78-2.82c.67-1.2,1-2.57,1-4.11v-17.79h2.5v17.79c0,1.98-.44,3.74-1.33,5.28s-2.12,2.74-3.69,3.62c-1.58.87-3.38,1.31-5.42,1.31Z"/>
      <path d="M474.41,539.51v-27.37h2.35v13.33l12.94-13.33h3.05l-11.85,12.32,12.39,15.05h-3.01l-10.99-13.41-2.54,2.66v10.75h-2.35Z"/>
      <path d="M507.17,548.11v-39.49h2.27v39.49h-2.27Z"/>
      <path d="M525.47,539.51v-2.27c0-.89.15-1.75.45-2.58.3-.83.75-1.65,1.35-2.44.6-.79,1.35-1.56,2.27-2.29l6.26-4.73c.7-.52,1.31-1.11,1.82-1.76.51-.65.9-1.33,1.17-2.03.27-.7.41-1.38.41-2.03,0-.99-.25-1.9-.74-2.72s-1.18-1.48-2.05-1.97c-.87-.5-1.9-.74-3.07-.74s-2.2.22-3.09.67c-.89.44-1.62,1.02-2.19,1.74-.57.72-.98,1.48-1.21,2.29l-2.54-.55c.31-1.12.87-2.17,1.68-3.15.81-.98,1.82-1.77,3.05-2.37,1.22-.6,2.58-.9,4.07-.9,1.75,0,3.26.34,4.55,1.02s2.29,1.6,3.01,2.76c.72,1.16,1.08,2.47,1.08,3.93,0,1.33-.36,2.63-1.08,3.89-.72,1.26-1.81,2.51-3.26,3.73l-5.98,4.58c-1.15.89-2.01,1.8-2.58,2.74-.57.94-.86,1.92-.86,2.93h14.15v2.27h-16.66Z"/>
      <path d="M557.14,539.98c-2.06,0-3.88-.61-5.45-1.82-1.58-1.21-2.81-2.88-3.71-5-.9-2.12-1.35-4.57-1.35-7.33s.45-5.21,1.35-7.33c.9-2.12,2.14-3.79,3.71-5,1.58-1.21,3.39-1.82,5.45-1.82s3.88.61,5.45,1.82c1.58,1.21,2.81,2.88,3.71,5,.9,2.12,1.35,4.57,1.35,7.33s-.45,5.21-1.35,7.33c-.9,2.12-2.14,3.79-3.71,5-1.58,1.21-3.4,1.82-5.45,1.82ZM557.14,537.71c1.56,0,2.95-.51,4.16-1.52,1.21-1.02,2.16-2.42,2.84-4.2.68-1.79,1.02-3.84,1.02-6.16s-.34-4.37-1.02-6.16-1.62-3.19-2.84-4.2c-1.21-1.02-2.6-1.53-4.16-1.53s-2.95.51-4.16,1.53-2.16,2.42-2.83,4.2c-.68,1.79-1.02,3.84-1.02,6.16s.34,4.37,1.02,6.16c.68,1.79,1.62,3.19,2.83,4.2s2.6,1.52,4.16,1.52Z"/>
      <path d="M571.96,539.51v-2.27c0-.89.15-1.75.45-2.58.3-.83.75-1.65,1.35-2.44.6-.79,1.35-1.56,2.27-2.29l6.26-4.73c.7-.52,1.31-1.11,1.82-1.76.51-.65.9-1.33,1.17-2.03.27-.7.41-1.38.41-2.03,0-.99-.25-1.9-.74-2.72s-1.18-1.48-2.05-1.97-1.9-.74-3.07-.74-2.2.22-3.09.67c-.89.44-1.62,1.02-2.19,1.74-.57.72-.98,1.48-1.21,2.29l-2.54-.55c.31-1.12.87-2.17,1.68-3.15.81-.98,1.82-1.77,3.05-2.37,1.23-.6,2.58-.9,4.07-.9,1.75,0,3.26.34,4.55,1.02,1.29.68,2.29,1.6,3.01,2.76s1.08,2.47,1.08,3.93c0,1.33-.36,2.63-1.08,3.89-.72,1.26-1.8,2.51-3.26,3.73l-5.98,4.58c-1.15.89-2.01,1.8-2.58,2.74s-.86,1.92-.86,2.93h14.15v2.27h-16.66Z"/>
      <path d="M602.45,539.98c-1.02,0-2.07-.14-3.15-.43-1.08-.29-2.11-.74-3.09-1.37-.98-.63-1.82-1.45-2.52-2.46l1.76-1.52c1.07,1.25,2.19,2.16,3.36,2.74s2.38.86,3.64.86c1.98,0,3.59-.61,4.83-1.82,1.24-1.21,1.86-2.8,1.86-4.75s-.6-3.58-1.8-4.79c-1.2-1.21-2.76-1.82-4.69-1.82-1.04,0-2.08.22-3.11.67-1.03.44-1.83,1-2.4,1.68l-2.27-.55,1.17-14.27h14.27v2.27h-11.96l-.82,9.54c.76-.47,1.58-.84,2.46-1.11.89-.27,1.77-.41,2.66-.41,1.75,0,3.28.37,4.61,1.11s2.38,1.78,3.15,3.11c.77,1.33,1.15,2.85,1.15,4.57s-.39,3.24-1.17,4.56-1.86,2.35-3.23,3.09c-1.37.74-2.94,1.11-4.71,1.11Z"/>
    </g>
  </g>
</svg>