<?xml version="1.0" encoding="UTF-8"?>
<svg id="uuid-e9f9ed30-a8db-470f-98be-6405181502bf" data-name="Layer 2" xmlns="http://www.w3.org/2000/svg" viewBox="0 0 1023 226.84">
  <g id="uuid-8082a43e-817b-4970-a06f-d06b711bc33f" data-name="Layer 1">
    <path d="M132.87.73c3.88-.99,9.1-.97,12.99,0,9.1.68,17.21,4.58,24.45,9.98,1.72,1.28,4.14,4.85,5.53,5.44,3.61,1.53,12.3,1.73,17.5,3.47,14.95,5.01,24.13,15.36,30.63,29.21,5.31,11.32,4.02,7.48,11.82,16.1,14.56,16.06,17.47,40.2,7.79,59.58-1.67,3.34-8.04,10.43-8.6,12.34-.99,3.42.07,8.95-.66,13.28-3.05,18.01-24.17,36.7-42.96,33.73-4.46-.7-7.49-4.53-11.54-5.9,3.69,13.19,5.04,25.8-2.16,38.17-6.22,10.68-19.81,14.6-29.75,6.07-10.83-9.29-23.95-24.67-34.5-35.31-1.94-1.96-4.46-3.2-6.55-5.42-3.45-3.66-6.68-11.19-11.24-12.68-4.18-1.36-8.86-.89-13.71-2.28-3.64-1.05-7.43-3.93-10.55-4.42-12-1.88-16.81,1.15-29.43-5.52-13.4-7.08-13.99-13.47-21.96-23.91-3.2-4.18-7.55-7.18-10.8-12.14-4.66-7.11-6.54-14.27-9.18-22.21v-17.92c1.69-26.62,23.96-45.08,48.95-49.03C62.38,10.21,86.19,2.78,110.03,6.71c7.51-4.05,15.12-6.05,22.84-5.98ZM154.85,23.64c-10.23-4.49-18.66-5.63-29.01-.55-3,1.48-9.93,8.17-10.59,8.3-1.39.27-9.25-3.13-12.11-3.53-18.71-2.56-33.85,7.2-40.35,24.48-23.5-.23-43.77,14.75-42.85,39.53.07,1.83.05,6.66,2.03,7.41,10.32-24.69,44.49-28.33,67.16-20.62,2.95,1,9.18,2.42,8.64,5.96-.13.83-6.13,14.76-6.82,15.25-1.49,1.06-13.99-4.05-17.63-4.46-15.47-1.73-35.52,2.45-36.39,21.35-.54,11.88,13.09,24.25,24.52,25.33,3.6.34,11.21-1.19,12.78-.83,1.11.26,5.25,4.92,7.79,6.22,17.88,9.16,28.21-9.05,39.85-18.83,16.03-13.46,34.86-16.82,55.34-14.31,9.38,1.15,18.47,4.49,27.53,6.91,1.09,1.22-5.19,18.41-6.51,18.74-15.28-4.1-31.5-9.68-47.42-5.4-15.36,4.13-23.53,18.36-35.49,27.42-.46,1.06,6.71,9.43,8.04,10.97,6.28,7.24,17.6,20.57,24.43,26.41,1.93,1.65,4.89,4.28,7.53,4.33,4.52.1,8.68-4.45,8.09-8.89-.42-3.12-10.07-19.68-12.39-23.52-.99-1.65-9.9-13.63-9.16-14.26,8.14.07,14.75,2.75,22.65-.83,1.65-.75,4.87-3.74,5.82-3.81,3.76-.24,15.33,12.37,21.99,12.66,13.4.59,22.39-14.99,20.23-27.21-.43-2.45-3.12-6.27-2.84-8.07.08-.54,7.54-4.66,9.1-6.08,16.74-15.29,12.07-38.95-5.69-51.12-1.25-.86-4.87-1.96-5.13-2.36-.67-1.03-1-8.37-1.69-10.76-4.5-15.44-25.1-28.1-39.8-18.76-13.62,8.66-8.14,26.34-3.65,38.66-3.43-.09-17.2,8.11-18.9,6.91l-5.13-15.82c-7.91,2.29-13.85,4.73-22.43,3.94-4.01-.37-18.56-5.01-18.53-9.44.02-2.22,10.33-10.75,11.16-14.31,7.79,2.52,10.11,5.22,18.54,2.04,11.79-4.44,11.71-10.44,17.87-19.03,2.74-3.82,6.48-6.46,9.42-10.02Z"/>
    <path d="M527.48,60.47v71.69h43.96v19.91l41.12-91.44,25.36-.24,42.42,93.66h-27.47l-7.39-17.31c-1.23-1.6-34.88-.15-39.95-.5-1.91,6.07-3.87,12.61-7.61,17.8h-97.4V60.47h26.97ZM637.38,116.23l-11-27.88c-1.39.09-1.54,1.51-2.02,2.45-3.86,7.6-6.81,17.39-9.95,25.43h22.98Z"/>
    <path d="M687.33,154.06V60.47h58.44c2.65,0,12.07,3.64,14.79,5.17,15.97,8.99,15.2,29.27.71,39.13,20.59,10.42,21.41,37.72-1.74,46.07-2.8,1.01-11.21,3.21-13.76,3.21h-58.44ZM714.3,97.31h21.48c.54,0,5.83-1.97,6.47-2.51,4.57-3.83,1.81-14.41-4.47-14.41h-23.48v16.93ZM714.3,134.15h26.47c.85,0,5.66-2.51,6.52-3.46,5-5.43.03-14.47-6.52-14.47h-26.47v17.92Z"/>
    <path d="M828.97,58.76c74.28-8.39,81.57,92.95,11.7,97.28s-75.11-90.11-11.7-97.28ZM862.84,107.16c0-14.17-11.52-25.65-25.74-25.65s-25.74,11.48-25.74,25.65,11.52,25.65,25.74,25.65,25.74-11.48,25.74-25.65Z"/>
    <path d="M473.19,72.77c19.58,18.94,18.27,53.51-2.63,70.85-33.51,27.8-91.01,6.57-87.96-39.88,2.88-43.97,60.74-59.86,90.59-30.97ZM429.32,81.62c-25.72,4.1-25.72,48.26,1.86,51.42,38.02,4.35,38.43-57.84-1.86-51.42Z"/>
    <path d="M317.69,60.47v36.84c5.77-2.91,32.9-36.84,35.47-36.84h29.47l-37.78,41.31,39.78,52.28h-30.47c-2.1,0-22.52-29.15-26.48-32.42-2.11-1.22-9.99,8.33-9.99,9.02v23.4h-26.97V60.47h26.97Z"/>
    <path d="M1023,60.47v20.41c0,.11-1.39,1.49-1.5,1.49h-26.47v70.19c0,.11-1.39,1.49-1.5,1.49h-24.98c-.11,0-1.5-1.39-1.5-1.49v-70.19h-27.97v-21.9h83.92Z"/>
    <rect x="902.12" y="60.47" width="27.97" height="93.59"/>
  </g>
</svg>